<svg width="49" height="23" viewBox="0 0 49 23" fill="none" xmlns="http://www.w3.org/2000/svg">
<path d="M33.1948 4.86138C33.1948 6.67731 32.159 7.89891 30.5855 8.95544C30.5855 8.95544 29.4062 9.78085 28.763 10.1771L33.8349 15.6978C33.9785 15.5203 35.6116 13.7511 35.6116 13.7511H48.1721V8.822H35.6116V5.30846L48.9986 5.30053L49 0.00131416L30.0691 0.0026474C32.0475 0.922987 33.1948 2.69628 33.1948 4.86162L33.1948 4.86138ZM37.8297 17.3612C36.965 18.2581 36.9329 18.3668 36.6198 18.6888L40.5749 22.9988L48.9786 22.9975L48.9801 17.364L37.8297 17.3612ZM11.9999 13.2107L14.5266 6.40242L16.9923 13.2107H11.9999ZM23.0923 0.0012722L10.159 -6.10352e-05L0 22.9975L8.5947 23.0001L10.2553 18.7327L18.2985 18.7393C18.0097 17.9511 17.8585 17.0665 17.8585 16.0856C17.8585 13.0825 20.2202 11.1345 22.4338 9.78079C21.3996 8.69124 19.8964 7.04043 19.8964 4.79529C19.8964 2.64094 21.0467 0.907539 23.0923 0.00094986V0.0012722ZM27.1956 6.87532C28.0175 6.34706 28.6591 5.71975 28.6591 4.89433C28.6591 3.80478 27.8739 2.97934 26.5509 2.97934C25.1562 2.97934 24.4427 3.80478 24.4427 4.89433C24.4427 5.75277 25.2264 6.57819 26.1201 7.53567C26.4791 7.33757 27.1956 6.87532 27.1956 6.87532ZM22.6141 16.1819C22.6141 18.1313 24.6138 19.8936 26.7572 19.8936C28.2589 19.8936 29.3679 19.4657 30.5473 18.5082L25.1882 12.5831C23.6483 13.5736 22.6141 14.498 22.6141 16.1819Z" fill="black"/>
</svg>
