<svg width="60" height="18" viewBox="0 0 60 18" fill="none" xmlns="http://www.w3.org/2000/svg">
<path d="M32.5065 7.90444C32.7811 7.64722 33.2167 7.4281 34.0463 7.4281C34.8878 7.4281 35.3175 7.64722 35.5979 7.90444C35.8784 8.16166 36.0515 8.52368 36.0694 9.03813C36.0515 9.55257 35.8784 9.92411 35.5979 10.1813C35.3175 10.4386 34.8878 10.6577 34.0463 10.6577C33.2167 10.6577 32.7811 10.4386 32.5065 10.1813C32.226 9.92411 32.047 9.55257 32.0231 9.03813C32.047 8.52368 32.226 8.16166 32.5065 7.90444ZM29.9761 9.03813C29.9821 9.44778 30.0895 10.5434 30.8534 11.4198C31.5099 12.1724 32.5304 12.6773 34.0463 12.6773C35.5681 12.6773 36.5827 12.1724 37.2451 11.4198C38.003 10.5434 38.1164 9.44778 38.1224 9.03813C38.1164 8.61895 38.003 7.54243 37.2451 6.66597C36.5827 5.90383 35.5681 5.39891 34.0463 5.39891C32.5304 5.39891 31.5099 5.90383 30.8534 6.66597C30.0895 7.54243 29.9821 8.61895 29.9761 9.03813ZM15.3904 7.90444C15.6709 7.64722 16.1006 7.4281 16.9421 7.4281C17.7776 7.4281 18.2073 7.64722 18.4878 7.90444C18.7683 8.16166 18.9413 8.52368 18.9652 9.03813C18.9414 9.55257 18.7683 9.92411 18.4878 10.1813C18.2073 10.4386 17.7776 10.6577 16.9421 10.6577C16.1006 10.6577 15.6709 10.4386 15.3904 10.1813C15.1159 9.92411 14.9368 9.55257 14.9189 9.03813C14.9368 8.52368 15.1159 8.16166 15.3904 7.90444ZM12.8719 9.03813C12.8719 9.44778 12.9853 10.5434 13.7432 11.4198C14.4057 12.1724 15.4202 12.6773 16.9421 12.6773C18.4639 12.6773 19.4785 12.1724 20.1349 11.4198C20.8929 10.5434 21.0063 9.44778 21.0122 9.03813C21.0062 8.61895 20.8929 7.54243 20.1349 6.66597C19.4785 5.90383 18.4639 5.39891 16.9421 5.39891C15.4202 5.39891 14.4057 5.90383 13.7432 6.66597C12.9853 7.54243 12.8719 8.61895 12.8719 9.03813ZM48.8349 7.90444C49.1154 7.64722 49.5451 7.4281 50.3806 7.4281C51.2221 7.4281 51.6518 7.64722 51.9323 7.90444C52.2128 8.16166 52.3858 8.52368 52.4097 9.03813C52.3858 9.55257 52.2128 9.92411 51.9323 10.1813C51.6518 10.4386 51.2221 10.6577 50.3806 10.6577C49.5451 10.6577 49.1154 10.4386 48.8349 10.1813C48.5544 9.92411 48.3813 9.55257 48.3575 9.03813C48.3813 8.52368 48.5544 8.16166 48.8349 7.90444ZM46.3104 9.03813C46.3164 9.44778 46.4298 10.5434 47.1877 11.4198C47.8442 12.1724 48.8647 12.6773 50.3806 12.6773C51.9084 12.6773 52.923 12.1724 53.5794 11.4198C54.3433 10.5434 54.4507 9.44778 54.4507 9.03813C54.4507 8.61895 54.3433 7.54243 53.5794 6.66597C52.923 5.90383 51.9084 5.39891 50.3806 5.39891C48.8647 5.39891 47.8442 5.90383 47.1877 6.66597C46.4298 7.54243 46.3164 8.61895 46.3104 9.03813ZM45.6241 12.6678V10.61H42.664C41.8106 10.61 41.1183 9.90506 41.1183 9.03813C41.1183 8.17119 41.8106 7.46621 42.664 7.44715L45.6241 7.46619V5.38935H42.664C40.6827 5.38935 39.0713 7.02796 39.0713 9.03811C39.0713 11.0482 40.6827 12.6678 42.664 12.6678H45.6241V12.6678ZM12.0603 12.6678V10.61H9.08824C8.24079 10.61 7.5485 9.90506 7.5485 9.03813C7.5485 8.17119 8.24079 7.46621 9.08824 7.44715L12.0603 7.46619V5.38935H9.08824C7.10687 5.38935 5.50149 7.02796 5.50149 9.03811C5.50149 11.0482 7.10687 12.6678 9.08824 12.6678H12.0603V12.6678ZM29.1167 9.03813C29.1167 7.02798 27.5054 5.38937 25.524 5.38937C23.5486 5.38937 21.9432 7.02798 21.9432 9.03813V12.6678H23.9783L23.9843 9.03813C23.9843 8.17119 24.6706 7.46621 25.5241 7.46621C26.3775 7.46621 27.0638 8.17119 27.0638 9.03813V12.6678H29.1048L29.1168 9.03813H29.1167ZM8.89727 2.19792C5.2031 2.19792 2.21314 5.24648 2.21314 8.99049C2.21314 12.7536 5.2031 15.8021 8.89727 15.8021H51.1087C54.7969 15.8021 57.7988 12.7536 57.7988 8.99049C57.7988 5.24648 54.7969 2.19792 51.1087 2.19792H8.89726H8.89727ZM51.1087 0.121094C55.9248 0.121094 59.8398 4.09375 59.8398 8.99049C59.8398 13.9063 55.9248 17.8789 51.1087 17.8789H8.89726C4.07514 17.8789 0.160156 13.9063 0.160156 8.99049C0.160156 4.09374 4.07514 0.121094 8.89726 0.121094H51.1087Z" fill="black"/>
</svg>
