<svg width="46" height="42" viewBox="0 0 46 42" fill="none" xmlns="http://www.w3.org/2000/svg">
<g clip-path="url(#clip0_3114_672)">
<path d="M22.9999 0C10.2974 0 0 9.402 0 21C0 32.598 10.2974 42 22.9999 42C35.7026 42 46 32.598 46 21C46 9.40205 35.7026 0 22.9999 0ZM1.69197 21C1.69197 18.744 2.10734 16.5467 2.92888 14.4527L5.14123 15.8558V31.6203C4.45349 30.6581 3.86074 29.6401 3.36576 28.5721C2.25554 26.1745 1.69197 23.627 1.69197 21ZM38.0671 34.7569C36.1097 36.5439 33.8308 37.947 31.2937 38.9269C28.6678 39.9411 25.8776 40.4551 23 40.4551C20.1229 40.4551 17.3327 39.9411 14.7069 38.9269C12.1693 37.947 9.89071 36.5439 7.93305 34.7569C7.31577 34.1929 6.7403 33.6 6.20796 32.9795H17.9835L22.6208 29.9142V13.2305L17.9835 10.0777H5.3619C6.11439 9.06708 6.97338 8.11989 7.93305 7.24326C9.89071 5.45579 12.1693 4.05278 14.7069 3.07317C17.3327 2.05898 20.1229 1.54494 23 1.54494C25.8776 1.54494 28.6678 2.05898 31.2937 3.07317C33.8307 4.05278 36.1097 5.45579 38.0671 7.24326C39.0272 8.11985 39.8856 9.06708 40.6382 10.0777H37.2714L36.515 11.6025L34.2671 10.0777H29.0372L24.4334 13.2305V29.9142L29.0156 32.9795H39.7926C39.2603 33.6 38.6847 34.1929 38.0671 34.7569ZM9.84272 15.3198H14.0541C15.2324 15.3198 16.1873 16.1915 16.1873 17.2674V25.8891C16.1873 26.9646 15.2324 27.8367 14.0541 27.8367H11.5275V16.4346L9.84272 15.3198ZM41.4208 30.7878V24.8429H35.4608V27.8367H32.8865C31.7603 27.8367 30.8477 27.0035 30.8477 25.9754V16.4368L29.1618 15.3198H35.4608V18.5876H40.924L42.0107 12.2016C42.2332 12.6022 42.4415 13.0112 42.6341 13.4275C43.7449 15.825 44.3081 18.3726 44.3081 21C44.3081 23.6269 43.7449 26.1745 42.6341 28.572C42.2798 29.3371 41.875 30.0763 41.4208 30.7878Z" fill="black"/>
</g>
<defs>
<clipPath id="clip0_3114_672">
<rect width="46" height="42" fill="white"/>
</clipPath>
</defs>
</svg>
