<svg width="60" height="13" viewBox="0 0 60 13" fill="none" xmlns="http://www.w3.org/2000/svg">
<path d="M60 0H0V13H60V0Z" fill="none"/>
<path d="M42.7095 6.45088V2.42085C42.7095 2.33234 42.7237 2.31464 42.8114 2.31464H44.6795C44.763 2.31464 44.7756 2.33145 44.7756 2.41466C44.7756 3.68925 44.7756 4.96355 44.7756 6.23756C44.7743 6.24547 44.7743 6.25355 44.7756 6.26146C44.7814 6.27828 44.7881 6.2951 44.7948 6.31191C44.8117 6.30565 44.8275 6.29637 44.8416 6.28447C44.89 6.22251 44.936 6.15701 44.9844 6.09328C45.2392 5.75693 45.4957 5.42235 45.7497 5.08511C45.7654 5.06214 45.7864 5.04376 45.8107 5.03169C45.8349 5.01962 45.8617 5.01425 45.8884 5.01607C46.5434 5.01607 47.1975 5.01607 47.8525 5.01607C47.8823 5.01431 47.9122 5.01431 47.9419 5.01607C47.957 5.01607 47.9779 5.02669 47.982 5.0382C47.983 5.04664 47.9822 5.0552 47.9798 5.06329C47.9773 5.07139 47.9732 5.07883 47.9678 5.08511C47.84 5.25063 47.7105 5.41438 47.5827 5.5799C47.1962 6.0803 46.8105 6.5807 46.4256 7.0811C46.332 7.20236 46.2393 7.32362 46.1432 7.44223C46.1353 7.44913 46.129 7.45778 46.1246 7.46757C46.1203 7.47736 46.118 7.48806 46.118 7.49888C46.118 7.50971 46.1203 7.5204 46.1246 7.53019C46.129 7.53998 46.1353 7.54864 46.1432 7.55553C46.4217 7.90427 46.6971 8.25361 46.9695 8.60353C47.3081 9.03489 47.6462 9.46565 47.9837 9.89583C48.1441 10.1003 48.3054 10.303 48.4658 10.5066C48.4745 10.5223 48.481 10.5393 48.485 10.557C48.4692 10.5654 48.4523 10.5711 48.4349 10.5738H46.1958C46.1764 10.5746 46.1572 10.5703 46.1397 10.5613C46.1223 10.5524 46.1071 10.539 46.0956 10.5225C45.7564 10.0852 45.4161 9.64858 45.0747 9.21251C45.0011 9.1178 44.9284 9.0222 44.8533 8.92838C44.8362 8.9118 44.8171 8.8978 44.7964 8.88678C44.787 8.9081 44.7805 8.93076 44.7772 8.95405C44.7772 9.46743 44.7772 9.9808 44.7772 10.4942C44.7772 10.5615 44.7655 10.573 44.6895 10.573H42.8189C42.7111 10.573 42.7095 10.573 42.7095 10.457V6.45088Z" fill="black"/>
<path d="M33.5611 10.6712C33.2998 10.6772 33.0393 10.6396 32.7891 10.5597C32.5326 10.4814 32.2889 10.362 32.0664 10.2056C31.7997 10.0183 31.5602 9.79079 31.3555 9.53026C31.188 9.31958 31.0506 9.08398 30.9478 8.831C30.7603 8.35149 30.6877 7.83031 30.7364 7.31388C30.7566 7.05276 30.8103 6.79577 30.896 6.55C31.0388 6.13842 31.2646 5.76477 31.5576 5.45509C31.797 5.19689 32.0787 4.98694 32.3889 4.83549C32.5438 4.76236 32.7049 4.70515 32.8701 4.66466C33.1905 4.58318 33.5211 4.55688 33.8493 4.58677C34.0577 4.60554 34.2638 4.64706 34.4642 4.71069C34.6689 4.77634 34.8653 4.86819 35.049 4.9842C35.3012 5.1479 35.5292 5.35012 35.7257 5.58432C35.9071 5.79048 36.0586 6.02405 36.1752 6.27738C36.2686 6.48223 36.3393 6.69788 36.3857 6.91999C36.4649 7.31834 36.4753 7.72856 36.4167 8.13086C36.3817 8.38982 36.3108 8.64186 36.2061 8.8788C35.9455 9.44887 35.5353 9.92733 35.0248 10.257C34.7986 10.4081 34.5501 10.5179 34.2896 10.5818C34.0512 10.6451 33.806 10.6748 33.5602 10.6703M33.6438 6.72615C33.4793 6.72115 33.3166 6.76303 33.1726 6.84741C33.0694 6.91034 32.9806 6.99657 32.9124 7.09999C32.8443 7.20341 32.7985 7.32146 32.7782 7.44576C32.7443 7.63357 32.7582 7.82755 32.8183 8.00782C32.8497 8.11422 32.9072 8.20992 32.9848 8.28517C33.0624 8.36042 33.1575 8.41254 33.2603 8.43623C33.4552 8.48874 33.659 8.49177 33.8551 8.44508C33.9732 8.4259 34.0835 8.37076 34.1725 8.28636C34.2615 8.20197 34.3254 8.09197 34.3564 7.96976C34.4376 7.69857 34.4255 7.40565 34.3222 7.14305C34.2912 7.06299 34.2439 6.99117 34.1836 6.93273C34.1234 6.87428 34.0518 6.83064 33.9738 6.80492C33.8637 6.77261 33.7522 6.74632 33.6396 6.72615" fill="black"/>
<path d="M12.1141 7.70867C12.1112 7.96237 12.0749 8.2144 12.0063 8.4575C11.9096 8.81385 11.7475 9.1465 11.5293 9.43646C11.3303 9.70643 11.096 9.94487 10.8334 10.1446C10.2984 10.549 9.64229 10.7322 8.98867 10.6597C8.7409 10.6367 8.49738 10.5771 8.26516 10.4827C7.70958 10.2561 7.27598 9.86309 6.91339 9.37538C6.76533 9.17411 6.64623 8.95069 6.55999 8.71242C6.48102 8.49826 6.42823 8.27427 6.40293 8.04591C6.37481 7.82209 6.36754 7.59588 6.3812 7.37055C6.4036 7.06051 6.47007 6.75583 6.57837 6.46683C6.76886 5.99141 7.06596 5.57243 7.44391 5.24622C7.64464 5.06657 7.87001 4.92032 8.11227 4.81251C8.56713 4.61476 9.06081 4.53818 9.55009 4.58945C9.7741 4.60783 9.99487 4.65722 10.2068 4.73638C10.5461 4.86502 10.8583 5.06289 11.1258 5.3188C11.385 5.55628 11.603 5.83996 11.7699 6.15703C11.8509 6.32391 11.9207 6.49664 11.9788 6.67395C12.0849 6.97578 12.1158 7.29354 12.1166 7.70867M8.40217 7.6299C8.40217 7.66707 8.40802 7.73611 8.41638 7.80692C8.42599 7.95207 8.47881 8.09025 8.56723 8.20158C8.65565 8.31291 8.77512 8.39167 8.90846 8.42652C9.1612 8.50788 9.43236 8.49728 9.67875 8.39642C9.76946 8.35943 9.85048 8.29993 9.91502 8.22293C9.97956 8.14593 10.0257 8.05366 10.0497 7.95386C10.1065 7.74323 10.1108 7.52062 10.0622 7.30771C10.0365 7.16443 9.96791 7.03373 9.86666 6.93491C9.76542 6.83609 9.63685 6.77439 9.49997 6.75892C9.284 6.71586 9.06126 6.73139 8.85249 6.80406C8.70981 6.8556 8.58902 6.95911 8.51162 7.09616C8.42997 7.25925 8.39212 7.44294 8.40217 7.62724" fill="black"/>
<path d="M15.3999 10.6712C15.1409 10.6766 14.8827 10.639 14.6346 10.5597C14.3738 10.4815 14.1263 10.3602 13.9011 10.2003C13.5337 9.94379 13.2177 9.61291 12.9712 9.22666C12.8389 9.01574 12.7362 8.78556 12.6663 8.54334C12.5539 8.16029 12.5125 7.75784 12.5443 7.35814C12.5626 7.086 12.6166 6.81789 12.7047 6.56152C12.8553 6.14189 13.0902 5.76195 13.3931 5.44802C13.6296 5.19069 13.9092 4.98237 14.2177 4.83373C14.4502 4.72536 14.6956 4.6512 14.9471 4.61333C15.1744 4.5746 15.4052 4.5645 15.6347 4.58324C15.7869 4.59859 15.9381 4.62371 16.0875 4.65847C16.2062 4.68358 16.3225 4.72001 16.435 4.76735C16.5818 4.82998 16.7245 4.90302 16.862 4.98598C17.164 5.17746 17.4309 5.42514 17.6498 5.7171C17.8334 5.94999 17.9804 6.2127 18.0851 6.49513C18.2485 6.93972 18.3109 7.41879 18.2672 7.89365C18.2414 8.21975 18.1634 8.53882 18.0366 8.8372C17.8544 9.24813 17.5939 9.61461 17.2713 9.91353C17.034 10.1442 16.761 10.3298 16.4643 10.4623C16.1274 10.6108 15.7647 10.6826 15.3999 10.673M15.4617 8.48049L15.5687 8.47164C15.7167 8.46242 15.8594 8.41037 15.9814 8.32117C16.0497 8.26672 16.1071 8.19834 16.1502 8.12006C16.1932 8.04177 16.221 7.95517 16.232 7.86532C16.2729 7.64077 16.2588 7.40888 16.1911 7.19174C16.1547 7.07954 16.0896 6.98028 16.0029 6.90509C15.9163 6.8299 15.8117 6.78173 15.7007 6.76598C15.4763 6.71528 15.2433 6.72749 15.0248 6.80139C14.9193 6.83723 14.8244 6.90152 14.7494 6.98796C14.6744 7.07439 14.6219 7.18 14.597 7.29441C14.5471 7.49755 14.5471 7.71087 14.597 7.91401C14.6287 8.06205 14.7064 8.19453 14.8176 8.29019C15.0081 8.4504 15.2353 8.46722 15.4634 8.47695" fill="black"/>
<path d="M50.8041 10.6694C50.544 10.6763 50.2846 10.6396 50.0354 10.5606C49.773 10.4812 49.524 10.3584 49.2977 10.1968C48.9291 9.93735 48.612 9.60385 48.3645 9.21517C48.2337 9.0079 48.1313 8.782 48.0604 8.54423C47.9073 8.03562 47.882 7.4935 47.9869 6.97135C48.0514 6.64336 48.1699 6.32996 48.337 6.04549C48.514 5.72666 48.7398 5.44129 49.0053 5.20107C49.2165 5.01687 49.4543 4.86983 49.7096 4.76559C50.1314 4.59995 50.5818 4.53204 51.0305 4.56643C51.2678 4.57587 51.5032 4.616 51.7314 4.68592C52.0606 4.78656 52.3666 4.95801 52.6304 5.18957C52.9097 5.43534 53.1418 5.73587 53.3138 6.0747C53.4111 6.26134 53.4971 6.4544 53.5711 6.6527C53.6491 6.85726 53.6899 7.07558 53.6914 7.29619C53.6914 7.36435 53.6755 7.38471 53.6078 7.39444C53.4124 7.4387 53.2177 7.48296 53.023 7.52987C52.8559 7.5697 52.6797 7.60776 52.5084 7.64671L51.9829 7.77062L51.4691 7.891L50.911 8.02112C50.7439 8.06006 50.5768 8.0999 50.4097 8.13796C50.3262 8.15743 50.2426 8.17425 50.1591 8.19372C50.1466 8.19372 50.1248 8.21319 50.1265 8.21762C50.1315 8.23782 50.1416 8.25619 50.1557 8.27073C50.2393 8.34331 50.3312 8.41235 50.4181 8.48493C50.5735 8.61593 50.7523 8.62832 50.9394 8.60708C51.0579 8.59412 51.1723 8.55429 51.275 8.49029C51.3776 8.4263 51.466 8.33964 51.5342 8.23621C51.6111 8.12734 51.6119 8.13265 51.7197 8.20788C51.9269 8.35216 52.1374 8.49378 52.3455 8.6354C52.6228 8.82482 52.9011 9.01336 53.1809 9.20455C53.2728 9.26739 53.2703 9.27005 53.1935 9.35767C53.0138 9.56126 52.8392 9.77103 52.6504 9.96665C52.5426 10.0786 52.4222 10.1761 52.292 10.257C52.1353 10.3566 51.9699 10.4402 51.7982 10.5066C51.5319 10.6067 51.2521 10.6608 50.9695 10.6668C50.9168 10.6668 50.8642 10.6668 50.8116 10.6668M50.8575 6.57569C50.7628 6.58508 50.669 6.60225 50.5768 6.62703C50.3887 6.68894 50.2241 6.81301 50.1073 6.98108C50.0532 7.06599 50.0046 7.15471 49.9619 7.24662C49.9551 7.26634 49.9551 7.28798 49.9619 7.3077C49.9619 7.31301 49.9853 7.31655 49.9962 7.31389L50.5643 7.17758L51.1157 7.04304C51.2301 7.01472 51.3446 6.98639 51.4582 6.95453C51.5075 6.94125 51.5142 6.91735 51.4799 6.88106C51.4004 6.7878 51.304 6.71228 51.1966 6.65893C51.0892 6.60559 50.9727 6.57548 50.8542 6.57038" fill="black"/>
<path d="M2.76126 6.8793C2.76126 5.70473 2.75541 4.53015 2.76126 3.35469C2.76206 3.19183 2.80141 3.03179 2.8757 2.88922C2.95 2.74664 3.05686 2.62609 3.1865 2.53859C3.38302 2.39642 3.61702 2.32391 3.85487 2.33147C4.77387 2.33147 5.69288 2.33147 6.61188 2.33147C6.62441 2.33147 6.63778 2.33147 6.65114 2.33147C6.81072 2.32262 6.79651 2.34032 6.79651 2.48725C6.79651 3.04194 6.79651 3.59692 6.79651 4.1522C6.79651 4.2531 6.78565 4.26284 6.68958 4.26284C6.23342 4.26284 5.77726 4.26284 5.32026 4.26284C5.23117 4.26203 5.14255 4.27668 5.05793 4.30621C4.89084 4.37083 4.82901 4.52484 4.82233 4.69744C4.81314 4.96298 4.81732 5.22852 4.81648 5.48787C4.81648 5.53744 4.81648 5.587 4.81648 5.63657C4.81648 5.68614 4.83904 5.7065 4.88582 5.70561H5.78979C5.90842 5.70561 5.90926 5.70561 5.90926 5.8313V7.52368C5.90926 7.63255 5.90258 7.63875 5.80149 7.63875H4.89501C4.82651 7.63875 4.81815 7.64937 4.81815 7.72107V10.4977C4.81815 10.5508 4.80061 10.5721 4.74964 10.5721C4.10467 10.5721 3.45942 10.5721 2.81389 10.5721C2.76376 10.5721 2.75708 10.5491 2.75708 10.5039C2.75708 9.29602 2.75708 8.08633 2.75708 6.87488L2.76126 6.8793Z" fill="black"/>
<path d="M19.4462 8.23176V6.83147C19.4462 6.75358 19.432 6.73765 19.3576 6.73676H18.6893C18.6241 6.73676 18.6057 6.72526 18.6057 6.65445V4.87798C18.6057 4.81159 18.6199 4.7992 18.6834 4.80009H19.3451C19.4286 4.80009 19.4412 4.78592 19.4412 4.70095C19.4412 4.11086 19.4412 3.52077 19.4412 2.93068C19.4412 2.8519 19.4512 2.84216 19.5247 2.84216C20.1424 2.84216 20.7595 2.84216 21.3761 2.84216C21.4596 2.84216 21.4713 2.84836 21.4722 2.93776C21.4722 3.2688 21.4772 3.59984 21.4788 3.93C21.4788 4.18403 21.483 4.43718 21.4855 4.69121C21.4855 4.78681 21.4997 4.80009 21.5908 4.80009H22.1848C22.2475 4.80009 22.2642 4.8169 22.2642 4.8886V6.65002C22.2642 6.7226 22.2483 6.73853 22.1806 6.73853H21.5808C21.4972 6.73853 21.4864 6.7527 21.4864 6.83855C21.4864 7.26342 21.4864 7.6874 21.4864 8.11138C21.4788 8.22227 21.4977 8.3334 21.5415 8.43446C21.567 8.4886 21.6043 8.5355 21.6504 8.57122C21.6965 8.60695 21.7499 8.63047 21.8063 8.63981C21.86 8.64863 21.9142 8.65306 21.9684 8.65308C22.1597 8.65308 22.3502 8.65308 22.5407 8.65308C22.6326 8.65308 22.6426 8.66371 22.6426 8.76284V10.4809C22.6426 10.5641 22.6351 10.5747 22.5591 10.5747H22.1105C21.5699 10.5747 21.0294 10.5747 20.4888 10.5747C20.2298 10.5801 19.9778 10.4858 19.7795 10.3092C19.6709 10.2173 19.5837 10.1001 19.5247 9.96666C19.4657 9.83326 19.4366 9.68726 19.4395 9.53999V8.23176H19.4462Z" fill="black"/>
<path d="M39.8512 10.6703C39.5795 10.6796 39.3081 10.6425 39.0475 10.5606C38.7869 10.4823 38.5397 10.3611 38.3148 10.2012C37.9689 9.95951 37.6683 9.65188 37.4284 9.29394C37.2728 9.06131 37.1534 8.80369 37.075 8.53095C36.9612 8.13759 36.9217 7.72431 36.9588 7.31477C36.991 6.89924 37.1094 6.49635 37.3056 6.13489C37.5266 5.73609 37.8227 5.38964 38.1753 5.11698C38.383 4.95146 38.615 4.82318 38.862 4.73726C39.3125 4.57721 39.7926 4.53351 40.2622 4.6098C40.4375 4.63795 40.6107 4.67967 40.7802 4.7346C41.0194 4.81413 41.245 4.93365 41.4486 5.08866C41.7453 5.31756 42.0025 5.59904 42.2089 5.92068C42.2339 5.95875 42.2323 5.9853 42.1913 6.0092C41.8204 6.25704 41.45 6.50605 41.0802 6.75625L40.5998 7.08375C40.5162 7.14129 40.5204 7.13509 40.4536 7.05543C40.3875 6.97563 40.3135 6.90353 40.233 6.84034C40.1122 6.7542 39.9669 6.71539 39.822 6.73058C39.6911 6.72817 39.5607 6.7485 39.436 6.79077C39.348 6.82152 39.2673 6.87221 39.1996 6.93931C39.132 7.00641 39.0789 7.08832 39.0441 7.17935C38.9587 7.41443 38.9476 7.67253 39.0124 7.9149C39.0345 8.02415 39.0829 8.1255 39.1528 8.20909C39.2228 8.29269 39.312 8.35569 39.4117 8.39199C39.6348 8.48387 39.8802 8.49568 40.1102 8.42562C40.2481 8.3766 40.3686 8.28392 40.4552 8.16008L40.4903 8.11405C40.4941 8.10835 40.4989 8.10357 40.5046 8.10006C40.5102 8.09654 40.5165 8.09437 40.523 8.0937C40.5295 8.09302 40.5361 8.09386 40.5423 8.09615C40.5485 8.09845 40.5541 8.10214 40.5588 8.10697L41.8446 8.98414C41.9607 9.06292 42.076 9.14347 42.193 9.22224C42.2008 9.22559 42.2077 9.23096 42.2131 9.23785C42.2185 9.24474 42.2222 9.25294 42.2239 9.26172C42.2255 9.2705 42.2251 9.27958 42.2226 9.28814C42.2202 9.2967 42.2157 9.30447 42.2097 9.31076C41.964 9.70102 41.6403 10.0292 41.2615 10.272C40.9786 10.4511 40.6646 10.5682 40.3383 10.6163C40.1779 10.6393 40.0166 10.6553 39.8554 10.6739C39.855 10.6689 39.855 10.6638 39.8554 10.6588" fill="black"/>
<path d="M26.4772 6.0189V2.42171C26.4772 2.32788 26.4889 2.31372 26.5766 2.31372H28.4147C28.4982 2.31372 28.5107 2.33142 28.5107 2.42082C28.5107 4.30321 28.5107 6.18531 28.5107 8.06711C28.5108 8.14651 28.5164 8.22579 28.5274 8.30433C28.5404 8.38905 28.5786 8.46715 28.6365 8.5272C28.6944 8.58724 28.7689 8.62608 28.8491 8.63802C28.9176 8.64691 28.9865 8.65134 29.0555 8.6513C29.5099 8.6513 29.9644 8.6513 30.4189 8.6513C30.4849 8.6513 30.4975 8.66546 30.4975 8.74866C30.4975 9.24139 30.4975 9.73471 30.4975 10.2286C30.4975 10.3171 30.4975 10.4056 30.4975 10.4942C30.4975 10.5499 30.4799 10.572 30.4256 10.572C30.2092 10.572 29.992 10.572 29.7748 10.572C28.9878 10.572 28.2005 10.572 27.4129 10.572C27.2197 10.5757 27.0291 10.5247 26.8607 10.4242C26.7206 10.3373 26.614 10.2005 26.5599 10.0383C26.4997 9.85646 26.4714 9.66447 26.4764 9.47182C26.4764 8.32114 26.4764 7.17047 26.4764 6.01979L26.4772 6.0189Z" fill="black"/>
<path d="M54.2588 8.04498C54.2588 7.29173 54.2588 6.54025 54.2588 5.78611C54.257 5.64155 54.2688 5.49716 54.2938 5.35505C54.3161 5.20528 54.3784 5.06543 54.4735 4.95214C54.5686 4.83884 54.6924 4.75687 54.8302 4.71598C54.9757 4.67151 55.1267 4.65091 55.278 4.65491C56.0951 4.65491 56.913 4.65491 57.7301 4.65491C57.8136 4.65491 57.8262 4.66907 57.8262 4.75935V6.47563C57.8262 6.573 57.8153 6.5845 57.7234 6.5845C57.4168 6.5845 57.1102 6.5845 56.8044 6.5845C56.7042 6.58657 56.605 6.60539 56.5103 6.64027C56.37 6.69426 56.3207 6.82792 56.3023 6.97396C56.2989 7.02731 56.2989 7.08083 56.3023 7.13417C56.3023 8.25535 56.3023 9.37652 56.3023 10.4977C56.3023 10.5508 56.2847 10.5712 56.2338 10.5712H54.3406C54.2713 10.5712 54.2571 10.557 54.2571 10.4915C54.2571 9.6754 54.2571 8.8593 54.2571 8.04321L54.2588 8.04498Z" fill="black"/>
</svg>
