<svg width="49" height="21" viewBox="0 0 49 21" fill="none" xmlns="http://www.w3.org/2000/svg">
<path fill-rule="evenodd" clip-rule="evenodd" d="M14.3287 20.3341L9.12246 20.4302L8.98994 13.2544L5.61848 13.3167L5.751 20.4925L0.416649 20.591L0.0746769 2.07366L5.40903 1.97515L5.5366 8.88309L8.90806 8.82082L8.78049 1.91288L13.9867 1.81674L14.3287 20.3341ZM38.2067 19.9759C43.5411 19.8774 47.8146 15.5079 47.7183 10.2906C47.6204 4.99112 43.1922 0.968054 37.8575 1.06657C32.4592 1.16627 29.7981 5.01065 29.1653 6.56952C29.123 4.28057 26.7036 1.58189 23.9512 1.63271L15.0536 1.79703L15.3956 20.3144L23.6747 20.1615C27.0456 20.0992 29.3629 17.2717 29.318 14.8385C30.0922 16.33 32.8085 20.0756 38.2067 19.9759ZM22.8756 12.7295C23.6437 12.7153 24.2758 13.4255 24.291 14.2506C24.307 15.1167 23.7013 15.8498 22.9335 15.8639L20.2876 15.9128L20.2297 12.7784L22.8756 12.7295ZM22.7473 5.78049C23.5153 5.7663 24.1475 6.47648 24.1627 7.30153C24.1779 8.12657 23.5722 8.85961 22.8044 8.87379L20.1585 8.92265L20.1013 5.82935L22.7473 5.78049ZM26.3384 10.6855C26.9564 10.6329 27.9468 9.93389 28.3231 9.51442C28.1827 10.012 28.2116 11.5791 28.3703 12.0715C27.9323 11.4811 26.9591 10.7772 26.3384 10.6855ZM33.1658 10.5594C33.1178 7.9612 35.2559 5.81769 37.9441 5.76805C40.6322 5.7184 42.8475 7.78152 42.8954 10.3797C42.9438 12.9985 40.8063 15.1423 38.1181 15.1919C35.4299 15.2416 33.2142 13.1782 33.1658 10.5594ZM38.0997 14.1815C40.1694 14.1433 41.8888 12.4612 41.8508 10.399C41.8127 8.33705 40.0326 6.74024 37.963 6.77846C35.8292 6.81786 34.1521 8.47852 34.1902 10.5404C34.1971 11.0285 34.3039 11.5103 34.5045 11.9581C34.7051 12.4058 34.9955 12.8106 35.359 13.1491C35.7225 13.4876 36.1518 13.7531 36.6222 13.9303C37.0926 14.1075 37.5948 14.1929 38.0997 14.1815ZM45.3112 1.48631C45.2987 0.806346 45.819 0.281828 46.5017 0.269219C47.1735 0.256814 47.7153 0.761717 47.7279 1.44168C47.7407 2.1347 47.2175 2.65574 46.546 2.66814C45.8633 2.68074 45.324 2.17933 45.3112 1.48631ZM46.5504 2.90631C47.3607 2.89135 48.0421 2.26964 48.0267 1.43616C48.0114 0.609209 47.3076 0.0128122 46.4973 0.0277772C45.6776 0.0429138 44.9951 0.664912 45.0104 1.49186C45.0258 2.32507 45.7308 2.92145 46.5504 2.90631ZM46.2096 1.58326L46.5093 1.57773L46.9757 2.28906L47.2678 2.28367L46.7659 1.56182C47.0163 1.52752 47.2086 1.39436 47.2031 1.09603C47.1971 0.771288 46.993 0.628018 46.5865 0.635524L45.9331 0.647592L45.9637 2.30775L46.2229 2.30297L46.2096 1.58326ZM46.2056 1.3704L46.1962 0.857846L46.5505 0.851302C46.7325 0.847942 46.9263 0.880576 46.9302 1.08718C46.9349 1.34278 46.7377 1.36058 46.5172 1.36465L46.2056 1.3704Z" fill="black"/>
</svg>
