<svg width="50" height="14" viewBox="0 0 50 14" fill="none" xmlns="http://www.w3.org/2000/svg">
<path d="M6.87515 13.0976C6.123 13.2344 5.35762 13.2755 4.56587 13.3847L2.15093 6.05667V13.6993C1.39878 13.7813 0.712598 13.8906 0 14V0H2.00586L4.75059 7.94348V0H6.87515V13.0976ZM11.0319 5.12696C11.8501 5.12696 13.1038 5.08593 13.8559 5.08593V7.27338C12.9189 7.27338 11.8237 7.27338 11.0319 7.31441V10.5684C12.2724 10.4864 13.5128 10.3769 14.7664 10.3359V12.4412L8.92051 12.9198V0H14.7664V2.1875H11.0319V5.12696ZM22.6181 2.18755H20.4275V12.25C19.7149 12.25 19.0023 12.25 18.3163 12.2773V2.18755H16.1257V0H22.6182L22.6181 2.18755ZM26.049 4.97661H28.939V7.16406H26.049V12.127H23.9771V0H29.8759V2.1875H26.049V4.97661ZM33.3069 10.2129C34.5078 10.2402 35.7217 10.336 36.8962 10.4043V12.5644C35.0092 12.4413 33.1222 12.3184 31.1956 12.2773V0H33.3069V10.2129ZM38.6777 12.7148C39.3507 12.7559 40.0633 12.797 40.7495 12.8789V0H38.6777V12.7148ZM50 0L47.3211 6.65822L50 14C49.2082 13.8906 48.4164 13.7402 47.6246 13.6035L46.1071 9.5567L44.5633 13.2755C43.7978 13.1386 43.0588 13.0976 42.2936 12.9882L45.012 6.57612L42.5574 0H44.827L46.2126 3.67774L47.6907 0H50Z" fill="black"/>
</svg>
