<svg width="29" height="40" viewBox="0 0 29 40" fill="none" xmlns="http://www.w3.org/2000/svg">
<path d="M28.9907 29.5099C28.5702 22.164 19.2113 18.825 18.3157 18.482C18.2791 18.464 18.2791 18.4279 18.2974 18.3918L27.9488 8.82589V7.79711C27.9488 7.63467 27.8025 7.49028 27.638 7.49028H9.85244V1.73269V0L3.29024 1.35366V2.3283H3.65582C3.65582 2.3283 5.26438 2.3283 5.26438 3.9166V7.47223H0.182791C0.0913955 7.47223 0 7.56247 0 7.65272V9.90882H5.28266C5.28266 9.90882 5.28266 12.3093 5.28266 15.1069V22.164C5.28266 26.0084 7.7869 28.6796 12.1739 28.3187C13.1061 28.2465 13.9652 27.8855 14.6964 27.4162C15.0254 27.1996 15.2265 26.8567 15.2265 26.4596V25.2504C13.8007 26.1889 12.5943 26.1347 12.5943 26.1347C9.81588 26.1347 9.87072 22.6513 9.87072 22.6513V9.90882H22.6661L13.4534 19.0776C13.4351 20.2869 13.4169 21.2255 13.4169 21.2435C13.4169 21.2796 13.4351 21.2977 13.4717 21.2977C21.9167 22.7055 24.2015 28.1021 24.2015 29.6723C24.2015 29.6723 25.1155 37.307 17.3834 37.8304C17.3834 37.8304 12.3201 38.047 11.4244 36.0436C11.3879 35.9714 11.4244 35.8992 11.4976 35.8631C12.3384 35.4841 12.9051 34.744 12.9051 33.7514C12.9051 32.2714 11.9911 31.0621 10.0718 31.0621C8.51807 31.0621 7.23853 32.2714 7.23853 33.7514C7.23853 33.7514 6.50736 40.1768 17.3652 39.9963C29.7584 39.7797 28.9907 29.5099 28.9907 29.5099Z" fill="black"/>
</svg>
