<svg width="29" height="45" viewBox="0 0 29 45" fill="none" xmlns="http://www.w3.org/2000/svg">
<path d="M21.5052 0.313904V3.92395H22.8854C23.0138 3.92395 23.0459 4.01812 23.0459 4.01812C23.1262 4.0966 23.2866 4.45761 23.1743 5.69758L21.7139 20.2162L19.788 3.92395H20.8633V0.313904H11.86L12.7587 8.11474L11.6674 19.9651L9.30823 0.313904H0.481445V3.92395H2.311L7.12561 44.5762H12.9994L14.7969 25.1133L17.1239 44.5762H22.9978L26.6408 5.93302C26.8013 4.30065 27.042 4.03382 27.0902 3.98673C27.1062 3.97104 27.1383 3.92395 27.1865 3.92395H28.5827V0.313904H21.5052ZM28.0852 3.45307H27.2346C26.9458 3.45307 26.8013 3.64142 26.8013 3.64142C26.689 3.7356 26.3519 4.00243 26.1594 5.88593L22.5484 44.1053H17.5412L14.7327 20.5459L12.5501 44.1053H7.54287L2.72826 3.45307H0.962906V0.784779H8.87492L11.7155 24.5326L13.2402 8.06765L12.3896 0.784779H20.3818V3.45307H19.2584L19.3226 4.03382L21.2485 20.3104L21.762 24.7053L22.1953 20.3261L23.6558 5.77606C23.7842 4.34774 23.5755 3.89256 23.415 3.70421C23.2866 3.57864 23.1262 3.45307 22.8854 3.45307H21.9867V0.784779H28.0852V3.45307Z" fill="black"/>
</svg>
