<svg width="1753" height="135" viewBox="0 0 1753 135" fill="none" xmlns="http://www.w3.org/2000/svg">
							<rect x="1605" y="42" width="59" height="60" fill="#F73A96"></rect>
							<rect x="1615" y="56" width="30" height="32" fill="black"></rect>
							<rect x="805" y="37" width="84" height="73" fill="#F73A96"></rect>
							<path d="M152.612 10.5L193.913 133H150.863L145.788 117.6H108.163L102.738 133H59.6875L100.988 10.5H152.612ZM134.238 83.475L126.888 61.6L119.363 83.475H134.238ZM302.432 133V10.5H261.657V58.8L238.032 10.5H197.432V133H238.382V92.575L261.657 133H302.432ZM309.37 10.5L350.32 10.5V133H309.37V10.5ZM418.334 10.5H366.359L355.684 133H396.634L400.659 85.75L416.759 133H457.884L473.984 85.75L478.009 133H519.134L508.284 10.5H456.484L437.409 66.675L418.334 10.5ZM615.576 10.5L656.876 133H613.826L608.751 117.6H571.126L565.701 133H522.651L563.951 10.5L615.576 10.5ZM597.201 83.475L589.851 61.6L582.326 83.475H597.201ZM735.186 43.05V10.5L634.036 10.5V43.05H664.486V133H704.911V43.05H735.186ZM740.376 10.5H781.326V133H740.376V10.5ZM849.689 8.74999C861.123 8.74999 871.623 11.6083 881.189 17.325C890.873 22.925 898.514 30.5667 904.114 40.25C909.831 49.8167 912.689 60.3167 912.689 71.75C912.689 83.1833 909.831 93.7417 904.114 103.425C898.514 112.992 890.873 120.633 881.189 126.35C871.623 131.95 861.123 134.75 849.689 134.75C838.256 134.75 827.698 131.95 818.014 126.35C808.448 120.633 800.806 112.992 795.089 103.425C789.489 93.7417 786.689 83.1833 786.689 71.75C786.689 60.3167 789.489 49.8167 795.089 40.25C800.806 30.5667 808.448 22.925 818.014 17.325C827.698 11.6083 838.256 8.74999 849.689 8.74999ZM849.689 50.75C843.973 50.75 839.014 52.7917 834.814 56.875C830.731 60.9583 828.689 65.9167 828.689 71.75C828.689 77.4667 830.731 82.425 834.814 86.625C839.014 90.7083 843.973 92.75 849.689 92.75C855.523 92.75 860.481 90.7083 864.564 86.625C868.648 82.425 870.689 77.4667 870.689 71.75C870.689 65.9167 868.648 60.9583 864.564 56.875C860.481 52.7917 855.523 50.75 849.689 50.75ZM1022.94 133V10.5H982.164V58.8L958.539 10.5H917.939V133H958.889V92.575L982.164 133H1022.94ZM1082.34 93.1C1084.33 102.317 1087.94 110.017 1093.19 116.2C1098.44 122.383 1104.63 126.933 1111.74 129.85C1118.98 132.767 1126.56 134.225 1134.49 134.225C1143.13 134.225 1151.29 132.592 1158.99 129.325C1166.69 125.942 1172.94 121.217 1177.72 115.15C1182.5 108.967 1184.89 101.85 1184.89 93.8C1184.89 86.3333 1182.91 80.15 1178.94 75.25C1175.09 70.35 1170.54 66.6167 1165.29 64.05C1160.04 61.3667 1153.51 58.625 1145.69 55.825C1139.74 53.725 1135.43 51.975 1132.74 50.575C1130.18 49.175 1128.89 47.425 1128.89 45.325C1128.89 44.1583 1129.42 43.225 1130.47 42.525C1131.52 41.7083 1132.86 41.3 1134.49 41.3C1137.29 41.3 1140.27 42.4083 1143.42 44.625C1146.69 46.725 1149.6 49.9917 1152.17 54.425L1184.89 43.225C1182.68 35.875 1178.94 29.6917 1173.69 24.675C1168.56 19.5417 1162.55 15.75 1155.67 13.3C1148.9 10.7333 1141.84 9.44999 1134.49 9.44999C1126.33 9.44999 1118.69 10.9667 1111.57 14C1104.57 16.9167 1098.91 21.2917 1094.59 27.125C1090.39 32.8417 1088.29 39.6667 1088.29 47.6C1088.29 54.4833 1090.16 60.2583 1093.89 64.925C1097.63 69.475 1101.94 73.0333 1106.84 75.6C1111.86 78.1667 1118.16 80.85 1125.74 83.65C1132.28 85.9833 1137 87.9667 1139.92 89.6C1142.84 91.2333 1144.29 93.3333 1144.29 95.9C1144.29 97.1833 1143.65 98.2333 1142.37 99.05C1141.2 99.75 1139.57 100.1 1137.47 100.1C1133.39 100.1 1129.13 98.5833 1124.69 95.55C1120.38 92.5167 1116.99 87.9083 1114.54 81.725L1082.34 93.1ZM1288.73 43.05V10.5L1187.58 10.5V43.05H1218.03V133H1258.45V43.05L1288.73 43.05ZM1356.04 83.825C1355.81 86.5083 1354.7 88.7833 1352.72 90.65C1350.73 92.4 1348.4 93.275 1345.72 93.275C1343.03 93.275 1340.7 92.4 1338.72 90.65C1336.73 88.7833 1335.62 86.5083 1335.39 83.825V10.5H1293.92V81.55V83.825C1294.03 93.0417 1296.42 101.558 1301.09 109.375C1305.87 117.192 1312.17 123.375 1319.99 127.925C1327.81 132.475 1336.38 134.75 1345.72 134.75C1355.05 134.75 1363.62 132.475 1371.44 127.925C1379.26 123.375 1385.5 117.192 1390.17 109.375C1394.95 101.558 1397.4 93.0417 1397.52 83.825H1397.34C1397.46 83.3583 1397.52 82.6 1397.52 81.55V10.5H1356.04V83.825ZM1404.49 10.5H1454.54C1465.62 10.5 1475.83 13.2417 1485.16 18.725C1494.61 24.2083 1502.08 31.675 1507.56 41.125C1513.05 50.4583 1515.79 60.6667 1515.79 71.75C1515.79 82.7167 1513.05 92.925 1507.56 102.375C1502.08 111.708 1494.61 119.175 1485.16 124.775C1475.83 130.258 1465.62 133 1454.54 133H1404.49V10.5ZM1454.54 92.05C1460.14 92.05 1464.92 90.0667 1468.89 86.1C1472.97 82.1333 1475.01 77.35 1475.01 71.75C1475.01 66.15 1472.97 61.3667 1468.89 57.4C1464.92 53.3167 1460.14 51.275 1454.54 51.275H1445.44V92.05H1454.54ZM1521.04 10.5H1561.99V133H1521.04V10.5ZM1630.35 8.74999C1641.79 8.74999 1652.29 11.6083 1661.85 17.325C1671.54 22.925 1679.18 30.5667 1684.78 40.25C1690.5 49.8167 1693.35 60.3167 1693.35 71.75C1693.35 83.1833 1690.5 93.7417 1684.78 103.425C1679.18 112.992 1671.54 120.633 1661.85 126.35C1652.29 131.95 1641.79 134.75 1630.35 134.75C1618.92 134.75 1608.36 131.95 1598.68 126.35C1589.11 120.633 1581.47 112.992 1575.75 103.425C1570.15 93.7417 1567.35 83.1833 1567.35 71.75C1567.35 60.3167 1570.15 49.8167 1575.75 40.25C1581.47 30.5667 1589.11 22.925 1598.68 17.325C1608.36 11.6083 1618.92 8.74999 1630.35 8.74999ZM1630.35 50.75C1624.64 50.75 1619.68 52.7917 1615.48 56.875C1611.4 60.9583 1609.35 65.9167 1609.35 71.75C1609.35 77.4667 1611.4 82.425 1615.48 86.625C1619.68 90.7083 1624.64 92.75 1630.35 92.75C1636.19 92.75 1641.15 90.7083 1645.23 86.625C1649.31 82.425 1651.35 77.4667 1651.35 71.75C1651.35 65.9167 1649.31 60.9583 1645.23 56.875C1641.15 52.7917 1636.19 50.75 1630.35 50.75Z" fill="#F73A96"></path>
							<path d="M862.81 72.4847C863.859 73.2852 863.859 74.8643 862.81 75.6648L844.187 89.8743C842.87 90.8787 840.973 89.9401 840.973 88.2843L840.973 59.8652C840.973 58.2095 842.87 57.2708 844.187 58.2752L862.81 72.4847Z" fill="black"></path>
							</svg>