<svg width="71" height="36" viewBox="0 0 71 36" fill="none" xmlns="http://www.w3.org/2000/svg">
<path d="M48.0986 7.60914C48.0986 10.4515 46.5978 12.3635 44.3178 14.0172C44.3178 14.0172 42.6089 15.3092 41.677 15.9293L49.0261 24.5704C49.2341 24.2926 51.6004 21.5235 51.6004 21.5235H69.8003V13.8084H51.6004V8.30891L70.9979 8.29651L71 0.00207901L43.5696 0.00416565C46.4361 1.4447 48.0985 4.22029 48.0985 7.60952L48.0986 7.60914ZM54.8144 27.1741C53.5616 28.578 53.5151 28.7481 53.0613 29.252L58.7922 35.9982L70.969 35.9961L70.9712 27.1785L54.8144 27.1741ZM17.3876 20.6776L21.0488 10.0212L24.6214 20.6776H17.3876ZM33.4602 0.00201416L14.7202 -7.24792e-05L0 35.996L12.4535 36.0002L14.8597 29.3208L26.5141 29.3311C26.0957 28.0973 25.8765 26.7128 25.8765 25.1775C25.8765 20.4769 29.2987 17.4279 32.5062 15.3091C31.0076 13.6037 28.8295 11.0198 28.8295 7.5057C28.8295 4.13367 30.4962 1.42052 33.4602 0.00151062V0.00201416ZM39.4058 10.7614C40.5967 9.93455 41.5265 8.95267 41.5265 7.66071C41.5265 5.95534 40.3887 4.66334 38.4718 4.66334C36.4508 4.66334 35.417 5.95534 35.417 7.66071C35.417 9.00436 36.5526 10.2963 37.8475 11.795C38.3677 11.4849 39.4058 10.7614 39.4058 10.7614ZM32.7674 25.3282C32.7674 28.3794 35.6649 31.1378 38.7706 31.1378C40.9465 31.1378 42.5535 30.4681 44.2624 28.9694L36.4972 19.6953C34.2659 21.2457 32.7674 22.6926 32.7674 25.3282Z" fill="#A158FF"/>
</svg>
