<svg width="182" height="26" viewBox="0 0 182 26" fill="none" xmlns="http://www.w3.org/2000/svg">
<path d="M171.254 0.0946503H135.96C135.639 0.0946503 135.479 0.255205 135.479 0.576113V15.8321C135.479 21.5154 139.994 25.8954 145.562 25.8954H180.857C181.178 25.8954 181.338 25.7348 181.338 25.4139V10.1579C181.338 4.47488 176.823 0.0946503 171.254 0.0946503Z" fill="#A158FF"/>
<path d="M138.257 15.9135C138.257 11.8007 141.505 8.63113 145.515 8.63113C149.544 8.63113 152.812 11.8007 152.812 15.9135C152.812 19.966 149.544 23.1358 145.515 23.1358C141.505 23.1358 138.257 20.0063 138.257 15.9135ZM149.905 15.9135C149.905 13.145 147.8 11.3996 145.475 11.4397C143.169 11.4599 141.124 13.1647 141.124 15.9135C141.124 18.6419 143.169 20.3472 145.475 20.3671C147.8 20.3671 149.905 18.6419 149.905 15.9135Z" fill="black"/>
<path d="M156.332 12.5431V13.2453C157.114 12.202 158.357 11.9011 159.6 11.9011C162.767 11.9212 163.85 14.1281 163.83 16.9967V22.4336C163.83 22.7543 163.669 22.9151 163.349 22.9151H161.605C161.284 22.9151 161.123 22.7543 161.123 22.4336V17.0168C161.123 15.3317 160.422 14.3686 158.978 14.3487C157.575 14.3285 156.432 15.432 156.432 17.0168V22.4338C156.432 22.7545 156.272 22.9153 155.951 22.9153H154.127C153.806 22.9153 153.646 22.7545 153.646 22.4338V12.5433C153.646 12.2224 153.806 12.0618 154.127 12.0618H155.851C156.171 12.0618 156.332 12.2224 156.332 12.5431Z" fill="black"/>
<path d="M174.607 21.2098C173.625 22.3734 172.121 23.0756 170.417 23.0756C167.61 23.0756 164.664 21.1697 164.664 17.4782C164.664 13.7467 167.47 11.9013 170.317 11.9013C173.304 11.9013 175.87 13.9276 175.87 17.4385C175.87 17.6188 175.85 17.7995 175.83 17.9598C175.81 18.261 175.629 18.4012 175.328 18.4012H167.43C167.65 19.8659 169.174 20.6882 170.417 20.6882C171.159 20.6882 172.041 20.4076 172.642 19.8055C172.862 19.6049 173.063 19.5446 173.324 19.7255L174.507 20.5277C174.768 20.7082 174.807 20.9489 174.607 21.2098ZM170.237 14.2284C169.054 14.2284 167.891 14.8706 167.53 16.2747H172.963C172.642 14.8503 171.479 14.2284 170.237 14.2284Z" fill="black"/>
<path d="M113.809 21.2098C112.826 22.3734 111.323 23.0756 109.619 23.0756C106.812 23.0756 103.865 21.1697 103.865 17.4782C103.865 13.7467 106.672 11.9013 109.518 11.9013C112.505 11.9013 115.072 13.9276 115.072 17.4385C115.072 17.6188 115.051 17.7995 115.031 17.9598C115.011 18.261 114.831 18.4012 114.53 18.4012H106.631C106.852 19.8659 108.375 20.6882 109.619 20.6882C110.36 20.6882 111.242 20.4076 111.844 19.8055C112.064 19.6049 112.265 19.5446 112.525 19.7255L113.708 20.5277C113.969 20.7082 114.009 20.9489 113.809 21.2098ZM109.438 14.2284C108.255 14.2284 107.093 14.8706 106.732 16.2747H112.165C111.844 14.8503 110.681 14.2284 109.438 14.2284Z" fill="#A158FF"/>
<path d="M119.001 12.5431V13.2453C119.783 12.202 121.026 11.9011 122.269 11.9011C125.437 11.9212 126.519 14.1281 126.499 16.9967V22.4336C126.499 22.7543 126.339 22.9151 126.018 22.9151H124.274C123.953 22.9151 123.793 22.7543 123.793 22.4336V17.0168C123.793 15.3317 123.091 14.3686 121.648 14.3487C120.244 14.3285 119.101 15.432 119.101 17.0168V22.4338C119.101 22.7545 118.941 22.9153 118.621 22.9153H116.796C116.475 22.9153 116.315 22.7545 116.315 22.4338V12.5433C116.315 12.2224 116.475 12.0618 116.796 12.0618H118.52C118.841 12.0618 119.001 12.2224 119.001 12.5431Z" fill="#A158FF"/>
<path d="M128.105 19.3845V10.537C128.105 10.2363 128.266 10.0556 128.546 10.0155L130.27 9.81485C130.591 9.77476 130.771 9.93531 130.771 10.2764V12.0618H132.616C132.937 12.0618 133.097 12.2224 133.097 12.5433V13.8273C133.097 14.1484 132.937 14.3088 132.616 14.3088H130.771V19.4044C130.771 20.5079 131.453 20.8087 132.315 20.7888C132.436 20.7888 132.536 20.7888 132.656 20.7684C132.977 20.7483 133.157 20.8889 133.177 21.2098L133.217 22.4737C133.237 22.7748 133.057 22.9551 132.716 22.9952C132.335 23.0355 131.974 23.0555 131.633 23.0355C129.448 22.9952 128.105 22.0124 128.105 19.3845Z" fill="#A158FF"/>
<path d="M86.2778 22.4338V12.5433C86.2778 12.2224 86.4381 12.0618 86.7589 12.0618H88.483C88.8038 12.0618 88.9641 12.2224 88.9641 12.5433V13.2455C89.726 12.2425 90.9087 11.8813 92.1117 11.9013C93.4748 11.9214 94.4974 12.4029 95.1189 13.5064C95.8406 12.4226 97.2638 11.9013 98.6673 11.9013C101.093 11.9013 102.597 13.6267 102.577 16.7763V22.4338C102.577 22.7545 102.416 22.9153 102.095 22.9153H100.351C100.031 22.9153 99.8702 22.7545 99.8702 22.4338V16.7963C99.8702 15.392 99.349 14.4893 98.1661 14.4893C96.9232 14.4689 95.8406 15.3319 95.8204 16.7564V22.4338C95.8204 22.7545 95.66 22.9153 95.3393 22.9153H93.6153C93.2946 22.9153 93.1342 22.7545 93.1342 22.4338V16.8166C93.1342 15.4322 92.5327 14.4893 91.3699 14.4893C90.207 14.4689 89.0643 15.2916 89.0643 16.8766V22.4338C89.0643 22.7545 88.9039 22.9153 88.5832 22.9153H86.7589C86.4381 22.9153 86.2778 22.7545 86.2778 22.4338Z" fill="#A158FF"/>
<path d="M77.174 12.5431V13.2453C77.9559 12.202 79.1988 11.9011 80.4419 11.9011C83.6095 11.9212 84.6921 14.1281 84.672 16.9967V22.4336C84.672 22.7543 84.5115 22.9151 84.1908 22.9151H82.4467C82.126 22.9151 81.9656 22.7543 81.9656 22.4336V17.0168C81.9656 15.3317 81.2638 14.3686 79.8204 14.3487C78.4171 14.3285 77.2743 15.432 77.2743 17.0168V22.4338C77.2743 22.7545 77.1141 22.9153 76.7932 22.9153H74.9689C74.648 22.9153 74.4878 22.7545 74.4878 22.4338V12.5433C74.4878 12.2224 74.648 12.0618 74.9689 12.0618H76.6929C77.0138 12.0618 77.174 12.2224 77.174 12.5431Z" fill="#A158FF"/>
<path d="M69.5776 9.51388C69.5776 8.47058 70.3996 7.94883 71.2215 7.94883C72.0235 7.96898 72.8253 8.47058 72.8253 9.51388C72.8253 10.4968 72.0435 10.9984 71.2616 11.0185C70.4396 11.0386 69.5776 10.5368 69.5776 9.51388ZM69.8583 22.4338V12.5433C69.8583 12.2224 70.0187 12.0618 70.3396 12.0618H72.0837C72.4044 12.0618 72.5646 12.2224 72.5646 12.5433V22.4338C72.5646 22.7545 72.4044 22.9153 72.0837 22.9153H70.3396C70.0187 22.9153 69.8583 22.7545 69.8583 22.4338Z" fill="#A158FF"/>
<path d="M10.6054 21.2098C9.62285 22.3734 8.11928 23.0756 6.41521 23.0756C3.60857 23.0756 0.661621 21.1697 0.661621 17.4782C0.661621 13.7467 3.46826 11.9013 6.31496 11.9013C9.30217 11.9013 11.8684 13.9276 11.8684 17.4385C11.8684 17.6188 11.8483 17.7995 11.8282 17.9598C11.8083 18.261 11.6277 18.4012 11.3269 18.4012H3.4282C3.64863 19.8659 5.17233 20.6882 6.41521 20.6882C7.15703 20.6882 8.03916 20.4076 8.64067 19.8055C8.8611 19.6049 9.0616 19.5446 9.3223 19.7255L10.5052 20.5277C10.7657 20.7082 10.8057 20.9489 10.6054 21.2098ZM6.23484 14.2284C5.05195 14.2284 3.88939 14.8706 3.52845 16.2747H8.96135C8.64067 14.8503 7.47771 14.2284 6.23484 14.2284Z" fill="#A158FF"/>
<path d="M15.7981 12.5431V13.2453C16.58 12.202 17.8228 11.9011 19.0659 11.9011C22.2335 11.9212 23.3161 14.1281 23.296 16.9967V22.4336C23.296 22.7543 23.1356 22.9151 22.8149 22.9151H21.0707C20.75 22.9151 20.5896 22.7543 20.5896 22.4336V17.0168C20.5896 15.3317 19.8878 14.3686 18.4445 14.3487C17.0411 14.3285 15.8983 15.432 15.8983 17.0168V22.4338C15.8983 22.7545 15.7381 22.9153 15.4172 22.9153H13.5929C13.2721 22.9153 13.1118 22.7545 13.1118 22.4338V12.5433C13.1118 12.2224 13.2721 12.0618 13.5929 12.0618H15.3169C15.6378 12.0618 15.7981 12.2224 15.7981 12.5431Z" fill="#A158FF"/>
<path d="M24.9019 19.3845V10.537C24.9019 10.2363 25.0621 10.0556 25.3429 10.0155L27.0669 9.81485C27.3878 9.77476 27.5682 9.93531 27.5682 10.2764V12.0618H29.4126C29.7333 12.0618 29.8937 12.2224 29.8937 12.5433V13.8273C29.8937 14.1484 29.7333 14.3088 29.4126 14.3088H27.5682V19.4044C27.5682 20.5079 28.2498 20.8087 29.1118 20.7888C29.2322 20.7888 29.3324 20.7888 29.4526 20.7684C29.7733 20.7483 29.9539 20.8889 29.974 21.2098L30.0141 22.4737C30.034 22.7748 29.8536 22.9551 29.5128 22.9952C29.1319 23.0355 28.771 23.0555 28.4302 23.0355C26.2452 22.9952 24.9019 22.0124 24.9019 19.3845Z" fill="#A158FF"/>
<path d="M40.5722 21.2098C39.5896 22.3734 38.0861 23.0756 36.382 23.0756C33.5754 23.0756 30.6284 21.1697 30.6284 17.4782C30.6284 13.7467 33.4351 11.9013 36.2818 11.9013C39.269 11.9013 41.8352 13.9276 41.8352 17.4385C41.8352 17.6188 41.8151 17.7995 41.795 17.9598C41.775 18.261 41.5945 18.4012 41.2937 18.4012H33.395C33.6154 19.8659 35.1391 20.6882 36.382 20.6882C37.1238 20.6882 38.006 20.4076 38.6075 19.8055C38.8279 19.6049 39.0284 19.5446 39.2891 19.7255L40.472 20.5277C40.7325 20.7082 40.7725 20.9489 40.5722 21.2098ZM36.2016 14.2284C35.0187 14.2284 33.8562 14.8706 33.4952 16.2747H38.9281C38.6075 14.8503 37.4445 14.2284 36.2016 14.2284Z" fill="#A158FF"/>
<path d="M43.0786 22.4338V12.5433C43.0786 12.2224 43.2389 12.0618 43.5597 12.0618H45.1034C45.4041 12.0618 45.5646 12.2224 45.5845 12.5233L45.6248 13.0449C46.3664 12.2022 47.2684 11.841 48.2909 11.841C48.5516 11.841 48.8123 11.8612 49.0929 11.9214C49.3936 11.9615 49.534 12.1422 49.534 12.4429L49.514 13.9276C49.514 14.2685 49.3335 14.4091 48.9926 14.3489C48.8123 14.3285 48.6518 14.3088 48.4715 14.3088C47.048 14.3287 45.7449 15.2717 45.7449 16.9568V22.4338C45.7449 22.7545 45.5845 22.9153 45.2638 22.9153H43.5597C43.2387 22.9153 43.0786 22.7545 43.0786 22.4338Z" fill="#A158FF"/>
<path d="M50.8223 19.3845V10.537C50.8223 10.2363 50.9825 10.0556 51.2633 10.0155L52.9873 9.81485C53.3082 9.77476 53.4886 9.93531 53.4886 10.2764V12.0618H55.333C55.6537 12.0618 55.8141 12.2224 55.8141 12.5433V13.8273C55.8141 14.1484 55.6537 14.3088 55.333 14.3088H53.4886V19.4044C53.4886 20.5079 54.1702 20.8087 55.0322 20.7888C55.1526 20.7888 55.2529 20.7888 55.373 20.7684C55.6937 20.7483 55.8743 20.8889 55.8944 21.2098L55.9345 22.4737C55.9544 22.7748 55.774 22.9551 55.4332 22.9952C55.0524 23.0355 54.6914 23.0555 54.3506 23.0355C52.1652 22.9952 50.8223 22.0124 50.8223 19.3845Z" fill="#A158FF"/>
<path d="M56.5485 17.3583C56.5684 14.4091 58.4329 11.8813 62.0015 11.8813C63.1842 11.8813 64.4674 12.2425 65.2692 13.3057V12.5433C65.2692 12.2224 65.4296 12.0618 65.7505 12.0618H67.4544C67.7753 12.0618 67.9355 12.2224 67.9355 12.5433V22.4338C67.9355 22.7545 67.7753 22.9153 67.4544 22.9153H65.7505C65.4296 22.9153 65.2692 22.7545 65.2692 22.4338V21.6715C64.5074 22.7144 63.1643 23.0555 62.0015 23.0758C58.4128 23.0758 56.5282 20.3474 56.5485 17.3583ZM65.269 17.4383C65.269 15.5324 63.7654 14.3088 62.2016 14.3088C60.2973 14.3287 59.2348 15.7532 59.2348 17.3984C59.2146 19.0231 60.2973 20.5879 62.2618 20.5682C63.8059 20.548 65.269 19.324 65.269 17.4383Z" fill="#A158FF"/>
</svg>
