<svg width="109" height="49" viewBox="0 0 109 49" fill="none" xmlns="http://www.w3.org/2000/svg">
<path fill-rule="evenodd" clip-rule="evenodd" d="M32.9665 47.925L21.296 48.1405L20.9846 31.2759L13.4269 31.4155L13.7384 48.2801L1.78057 48.5009L0.976862 4.98125L12.9346 4.76042L13.2345 20.9955L20.7921 20.856L20.4923 4.62085L32.1628 4.40532L32.9665 47.925ZM86.4932 47.131C98.451 46.9102 108.022 36.6497 107.796 24.388C107.566 11.9331 97.6309 2.4693 85.6725 2.69014C73.5714 2.91362 67.6135 11.9433 66.1981 15.6056C66.0988 10.2261 60.6698 3.87887 54.4999 3.99281L34.5545 4.36115L35.3582 47.8808L53.9171 47.538C61.4735 47.3985 66.6626 40.7579 66.557 35.0394C68.2955 38.5462 74.3921 47.3545 86.4932 47.131ZM52.1109 30.0701C53.8327 30.0383 55.2511 31.7086 55.287 33.6476C55.3245 35.6832 53.9681 37.4048 52.2469 37.4366L46.3157 37.5461L46.1797 30.1796L52.1109 30.0701ZM51.8093 13.7384C53.5311 13.7066 54.9495 15.3769 54.9853 17.3159C55.0212 19.2549 53.6647 20.9765 51.9435 21.0083L46.0123 21.1178L45.8781 13.8479L51.8093 13.7384ZM59.8693 25.2731C61.2547 25.1509 63.4735 23.51 64.3162 22.5249C64.0024 23.6942 64.0704 27.3771 64.4271 28.5346C63.444 27.1461 61.2609 25.4899 59.8693 25.2731ZM75.174 24.9904C75.0613 18.8842 79.85 13.8509 85.8759 13.7396C91.9018 13.6283 96.8718 18.4814 96.9846 24.5877C97.0982 30.7425 92.3108 35.7764 86.2849 35.8877C80.259 35.999 75.2877 31.1453 75.174 24.9904ZM86.2417 33.513C90.8811 33.4274 94.7323 29.4775 94.6428 24.6309C94.5533 19.7849 90.5598 16.0286 85.9204 16.1143C81.137 16.2026 77.3809 20.1021 77.4704 24.948C77.4868 26.0951 77.7272 27.2277 78.1779 28.2803C78.6285 29.333 79.2803 30.2849 80.0958 31.0812C80.9112 31.8775 81.8741 32.5024 82.929 32.9197C83.9839 33.3371 85.1097 33.5388 86.2417 33.513ZM102.382 3.69153C102.353 2.09348 103.518 0.861815 105.048 0.833551C106.554 0.805741 107.77 1.99344 107.8 3.59148C107.83 5.22024 106.658 6.44371 105.153 6.4715C103.622 6.49977 102.412 5.32028 102.382 3.69153ZM105.163 7.03127C106.979 6.99772 108.506 5.53797 108.469 3.57911C108.434 1.63561 106.854 0.232565 105.038 0.266111C103.201 0.300042 101.672 1.76048 101.708 3.70398C101.744 5.6622 103.326 7.0652 105.163 7.03127ZM104.396 3.92119L105.068 3.90879L106.115 5.58148L106.77 5.56939L105.643 3.87192C106.205 3.7918 106.635 3.47924 106.622 2.77809C106.608 2.01489 106.15 1.67777 105.239 1.6946L103.775 1.72165L103.847 5.62337L104.427 5.61265L104.396 3.92119ZM104.387 3.42093L104.365 2.21631L105.159 2.20164C105.567 2.19411 106.002 2.27119 106.011 2.75675C106.022 3.35746 105.58 3.3989 105.085 3.40803L104.387 3.42093Z" fill="#A158FF"/>
</svg>
