<svg width="106" height="36" viewBox="0 0 106 36" fill="none" xmlns="http://www.w3.org/2000/svg">
<g clip-path="url(#clip0_3188_2057)">
<path fill-rule="evenodd" clip-rule="evenodd" d="M16.6609 11.2338H11.2624C9.36817 11.2338 8.41566 11.7612 8.41566 11.7612V0H0V36H8.41566V21.4739C8.41566 20.1889 9.42732 19.1484 10.672 19.1484H15.5711C16.8176 19.1484 17.8257 20.1889 17.8257 21.4739V36H26.245V20.3489C26.245 13.7663 21.99 11.2338 16.6609 11.2338ZM97.5806 11.2338V25.7579C97.5806 27.045 96.5727 28.0854 95.3262 28.0854H90.4289C89.1824 28.0854 88.1743 27.045 88.1743 25.7579V11.2338H79.7533V26.4833C79.7533 32.7168 83.6216 36 89.3389 36H97.5824V35.9548C102.849 35.9548 106 32.0921 106 26.4833V11.2338H97.5806ZM50.0926 25.7579C50.0926 27.045 49.0829 28.0854 47.8363 28.0854H42.9372C41.6906 28.0854 40.6827 27.045 40.6827 25.7579V11.2338H32.2633V26.4833C32.2633 32.7168 36.1319 36 41.8491 36H50.0926V35.9548C55.359 35.9548 58.5119 32.0921 58.5119 26.4833V11.2338H50.0926V25.7579ZM64.9273 36H73.3483V0H64.9273V36Z" fill="#A158FF"/>
</g>
<defs>
<clipPath id="clip0_3188_2057">
<rect width="106" height="36" fill="white"/>
</clipPath>
</defs>
</svg>
