<svg width="18" height="18" viewBox="0 0 18 18" fill="none" xmlns="http://www.w3.org/2000/svg">
<g clip-path="url(#clip0_3114_631)">
<rect width="18" height="18" fill="#A158FF"/>
<path d="M11.25 9C11.25 9.44501 11.118 9.88002 10.8708 10.25C10.6236 10.62 10.2722 10.9084 9.86104 11.0787C9.4499 11.249 8.9975 11.2936 8.56105 11.2068C8.12459 11.12 7.72368 10.9057 7.40901 10.591C7.09434 10.2763 6.88005 9.87541 6.79323 9.43895C6.70642 9.0025 6.75097 8.5501 6.92127 8.13896C7.09157 7.72783 7.37996 7.37643 7.74997 7.12919C8.11998 6.88196 8.55499 6.75 9 6.75C9.59653 6.75068 10.1684 6.98795 10.5902 7.40976C11.012 7.83157 11.2493 8.40347 11.25 9ZM16.0312 5.90625V12.0938C16.0301 13.1377 15.6148 14.1385 14.8767 14.8767C14.1385 15.6148 13.1377 16.0301 12.0938 16.0312H5.90625C4.86232 16.0301 3.86149 15.6148 3.12332 14.8767C2.38515 14.1385 1.96993 13.1377 1.96875 12.0938V5.90625C1.96993 4.86232 2.38515 3.86149 3.12332 3.12332C3.86149 2.38515 4.86232 1.96993 5.90625 1.96875H12.0938C13.1377 1.96993 14.1385 2.38515 14.8767 3.12332C15.6148 3.86149 16.0301 4.86232 16.0312 5.90625ZM12.375 9C12.375 8.33249 12.1771 7.67997 11.8062 7.12495C11.4354 6.56993 10.9083 6.13735 10.2916 5.88191C9.67486 5.62646 8.99626 5.55962 8.34157 5.68985C7.68688 5.82008 7.08552 6.14151 6.61351 6.61351C6.14151 7.08552 5.82008 7.68688 5.68985 8.34157C5.55962 8.99626 5.62646 9.67486 5.88191 10.2916C6.13735 10.9083 6.56993 11.4354 7.12495 11.8062C7.67997 12.1771 8.33249 12.375 9 12.375C9.89479 12.374 10.7527 12.0181 11.3854 11.3854C12.0181 10.7527 12.374 9.89479 12.375 9ZM13.5 5.34375C13.5 5.17687 13.4505 5.01374 13.3578 4.87499C13.2651 4.73623 13.1333 4.62809 12.9791 4.56423C12.825 4.50037 12.6553 4.48366 12.4916 4.51621C12.328 4.54877 12.1776 4.62913 12.0596 4.74713C11.9416 4.86513 11.8613 5.01547 11.8287 5.17914C11.7962 5.34281 11.8129 5.51246 11.8767 5.66664C11.9406 5.82081 12.0487 5.95259 12.1875 6.0453C12.3262 6.13802 12.4894 6.1875 12.6562 6.1875C12.88 6.1875 13.0946 6.09861 13.2529 5.94037C13.4111 5.78214 13.5 5.56753 13.5 5.34375Z" fill="black"/>
</g>
<defs>
<clipPath id="clip0_3114_631">
<rect width="18" height="18" fill="white"/>
</clipPath>
</defs>
</svg>
