<svg width="122" height="60" viewBox="0 0 122 60" fill="none" xmlns="http://www.w3.org/2000/svg">
<path d="M65.4962 0.894832C65.0987 0.954894 64.7164 2.38872 63.9481 3.13567C63.3861 3.67474 62.6847 3.64102 62.3121 4.30748C62.1707 4.55646 62.2165 4.98146 62.056 5.38953C61.7425 6.20568 60.6379 6.27864 60.6379 7.16788C60.634 8.12819 61.5591 8.3116 62.3599 8.99298C62.9849 9.54146 63.0461 9.91957 63.8028 10.1853C64.4489 10.4007 65.4102 9.69679 66.276 9.94953C66.987 10.1574 67.6673 10.3071 67.828 11.0222C67.9693 11.6811 67.8184 12.7031 66.9564 12.5853C66.6659 12.5534 65.4064 12.1378 63.8583 12.2988C61.991 12.5067 59.8599 13.1037 59.6517 15.1424C59.537 16.2824 60.9761 17.6264 62.3656 17.3531C63.3269 17.1677 62.8721 16.0578 63.3958 15.5186C64.0818 14.828 67.9693 17.9297 71.5835 17.9297C73.1049 17.9297 74.2362 17.5535 75.3602 16.4003C75.4652 16.3123 75.5933 16.1233 75.7557 16.112C75.9087 16.1233 76.1762 16.2711 76.2641 16.3348C79.175 18.626 81.3748 23.2217 92.072 23.276C93.5761 23.2834 95.2904 23.9874 96.6895 25.2378C97.9376 26.3685 98.6677 28.1261 99.3767 29.9101C100.447 32.5871 102.366 35.191 105.275 38.0887C105.433 38.2441 107.828 40.0674 108.019 40.2041C108.05 40.2228 108.226 40.6346 108.165 40.8648C108.094 42.602 107.836 47.6543 111.681 47.8827C112.622 47.9295 112.375 47.2818 112.375 46.8363C112.373 45.9564 112.209 45.0823 112.683 44.1819C113.331 42.9427 111.309 42.3717 111.368 39.6929C111.41 37.6956 109.697 38.0362 108.828 36.5144C108.327 35.6327 107.882 35.1648 107.914 34.0864C108.109 28.0177 106.595 24.0304 105.84 23.0514C105.252 22.3119 104.765 22.0181 105.303 21.6754C108.512 19.5995 109.241 17.6676 109.241 17.6676C110.947 13.7384 112.482 10.1497 114.598 8.56999C115.024 8.24415 116.117 7.44494 116.788 7.13039C118.762 6.21871 119.802 5.6666 120.376 5.11986C121.283 4.25319 122 2.44677 121.13 1.35168C120.049 8.4281e-05 118.178 1.07273 117.352 1.55189C111.452 4.98146 110.582 11.0315 108.539 14.5059C106.909 17.2819 104.258 19.3205 101.888 19.4872C100.111 19.6163 98.1956 19.2644 96.2882 18.4445C91.6496 16.4527 89.1114 13.8807 88.5133 13.4259C87.2671 12.4842 77.5924 3.18243 69.7544 2.80244C69.7544 2.80244 68.7817 0.894967 68.537 0.863122C67.9635 0.791907 67.3769 2.00309 66.9564 2.14364C66.5608 2.27263 65.8957 0.831143 65.4962 0.894832ZM30.9907 56.4114C30.253 56.3945 29.6262 55.8011 29.6262 55.0673L29.6281 31.1213H21.5703V57.5176C21.5703 58.8112 22.6405 59.867 23.9535 59.867H38.0375C39.36 59.867 40.417 58.8112 40.417 57.5176V31.1213H32.3669L32.3592 55.0673C32.3592 55.8011 31.7322 56.3945 30.9907 56.4114ZM45.7741 31.1213C44.3312 31.1213 43.1558 32.2707 43.1558 33.699V59.8669H51.221V35.8631C51.2267 35.1274 51.8345 34.5452 52.5838 34.5452C53.3368 34.5452 53.9407 35.1143 53.9579 35.8425V59.867H61.9908V35.8423C62.0004 35.1141 62.6043 34.5451 63.3554 34.5451C64.1009 34.5451 64.7163 35.1273 64.7221 35.863V59.867H72.7874V33.699C72.7874 32.2707 71.6101 31.1213 70.1672 31.1213H45.7741ZM10.787 35.9135C10.7928 35.1141 10.1277 34.5451 9.42239 34.5451H8.05396V49.0845H9.42239C10.1334 49.0845 10.7929 48.5304 10.787 47.7349V35.9135ZM16.1939 52.6431H8.05396V59.867H0V31.1213H16.2456C17.7 31.1213 18.8352 32.2782 18.8352 33.7103V50.0542C18.8352 51.4882 17.6561 52.6431 16.1939 52.6431ZM100.426 53.4387C98.8072 53.4387 97.4482 54.8089 97.4482 56.4694C97.4482 58.1354 98.8072 59.4944 100.478 59.4944C102.135 59.4944 103.476 58.1354 103.476 56.4694C103.476 54.8052 102.135 53.4387 100.477 53.4387H100.426ZM104.054 56.46C104.054 58.4124 102.456 59.9999 100.478 59.9999C98.4784 59.9999 96.873 58.4238 96.873 56.46C96.873 54.5337 98.4784 52.9239 100.418 52.9239C102.456 52.9239 104.054 54.4852 104.054 56.46Z" fill="#A158FF"/>
</svg>
