<svg width="85" height="41" viewBox="0 0 85 41" fill="none" xmlns="http://www.w3.org/2000/svg">
<path d="M39.0291 0.636211H40.2333L40.3749 0.070694H25.2166L25.0749 0.636211H27.2708C29.1833 0.636211 30.7416 1.97932 30.7416 4.59483C30.7416 6.07932 30.1041 7.98794 29.0416 10.3207L19.1958 32.0224L16.7874 3.81725C16.5749 1.62587 17.7083 0.636211 20.1874 0.636211H21.6041L21.7458 0.070694H0.354102L0.141602 0.636211H1.48743C3.18744 0.636211 3.82494 1.69656 3.9666 3.67587L7.7916 40.1517H16.7874L31.8749 8.27069C34.2124 3.53449 36.6208 0.636211 39.0291 0.636211ZM37.2583 40.2931C35.9124 40.2931 35.0624 39.869 35.0624 37.6069C35.0624 34.7793 36.1249 29.1948 37.2583 24.1052C37.3999 26.4379 39.0291 28.7707 41.4374 28.7707C42.0041 28.7707 42.4999 28.7 42.9958 28.6293C40.7291 38.3138 39.8791 40.2931 37.2583 40.2931ZM80.1833 21.1362C83.0166 21.1362 84.8583 18.8035 84.8583 16.1172C84.8583 13.8552 83.2291 12.1586 80.8916 12.1586C76.7124 12.1586 74.7291 15.481 71.2583 21.5604C70.5499 17.7431 68.7791 12.7948 64.3874 12.7948C59.4291 12.7948 53.6916 19.8638 48.4499 24.2466C46.0416 26.2966 43.4208 27.569 41.2958 27.569C39.0999 27.569 37.8249 25.3776 37.8249 21.4897C39.3833 15.1276 40.1624 13.5017 42.5708 13.5017C44.1999 13.5017 44.9083 14.4207 44.9083 16.3293C44.9083 18.3793 44.4833 21.7724 43.5624 26.0845C45.8999 25.3776 49.4416 22.4086 52.4166 19.2276C50.8583 15.481 47.4583 12.9362 42.6416 12.9362C33.6458 12.9362 25.7124 20.9948 25.7124 30.0431C25.7124 36.2638 30.1749 41 37.1166 41C48.5916 41 53.4083 31.1035 53.4083 24.1759C53.4083 23.1862 53.3374 22.4793 53.2666 21.5604C55.0374 19.6517 57.3041 17.8138 59.1458 17.8138C61.2708 17.8138 62.9708 23.1155 64.5999 31.1035C63.1124 32.7293 61.6249 35.8397 60.9166 36.4052C60.6333 33.5776 58.7208 31.8104 56.2416 31.8104C53.4083 31.8104 51.4958 34.4966 51.4958 36.7586C51.4958 39.3035 53.2666 41 55.6041 41C60.4916 41 61.8374 36.4052 64.8833 32.3052C65.8041 36.6879 67.9999 41 71.7541 41C76.2166 41 80.3249 37.1828 82.4499 34.4966L82.0249 33.8604C80.6791 35.2035 79.3333 36.0517 77.7749 36.0517C75.0124 36.0517 73.0291 30.1138 71.5416 22.9035C72.4624 21.7017 73.8791 18.5914 74.8708 17.4604C75.5083 18.7328 76.9249 21.1362 80.1833 21.1362Z" fill="#A158FF"/>
</svg>
