<svg width="134" height="57" viewBox="0 0 134 57" fill="none" xmlns="http://www.w3.org/2000/svg">
<path d="M123.572 39.7092C123.216 39.7092 122.971 39.4569 122.971 39.094V21.0701H116.982C116.625 21.0701 116.38 20.8189 116.38 20.4556V17.9694C116.38 17.6053 116.626 17.3534 116.982 17.3534H132.925C133.281 17.3534 133.525 17.6056 133.525 17.9694V20.4555C133.525 20.8185 133.281 21.0701 132.925 21.0701H126.936V39.0938C126.936 39.4569 126.689 39.7092 126.334 39.7092H123.572ZM77.691 30.7106L74.5469 21.4898L71.3745 30.7106H77.691ZM84.6644 38.9809C84.8019 39.3451 84.5826 39.7092 84.1997 39.7092H81.3563C80.9458 39.7092 80.6994 39.5142 80.5623 39.1211L78.9496 34.3723H70.1175L68.502 39.1211C68.3663 39.5143 68.1193 39.7092 67.7099 39.7092H65.0309C64.6749 39.7092 64.4283 39.345 64.5652 38.9809L71.9759 17.9135C72.113 17.521 72.359 17.3544 72.7684 17.3544H76.4328C76.8434 17.3544 77.1169 17.5211 77.2536 17.9135L84.6644 38.9809ZM105.906 36.6907C107.656 36.6907 108.832 35.8258 109.789 34.3441L105.36 29.4813C103.664 30.4601 102.569 31.4368 102.569 33.3935C102.57 35.3219 104.1 36.6907 105.906 36.6907ZM107.137 20.3154C105.715 20.3154 104.895 21.2384 104.895 22.4677C104.895 23.4177 105.386 24.2561 106.508 25.486C108.449 24.3395 109.27 23.6413 109.27 22.4121C109.27 21.2655 108.559 20.3154 107.137 20.3154ZM119.252 38.9266C119.607 39.3182 119.389 39.7092 118.95 39.7092H115.477C115.012 39.7092 114.766 39.5968 114.465 39.2332L112.387 36.8869C110.993 38.7872 109.05 40.212 105.824 40.212C101.831 40.212 98.6856 37.7531 98.6856 33.5344C98.6856 30.2918 100.382 28.5589 102.953 27.1062C101.694 25.6253 101.121 24.0603 101.121 22.6917C101.121 19.2258 103.5 16.8509 107.081 16.8509C110.746 16.8509 112.989 19.0593 112.989 22.3281C112.989 25.1225 111.02 26.6859 108.941 27.8604L112.004 31.2428L113.727 28.1678C113.945 27.8051 114.192 27.6649 114.629 27.6649H117.281C117.719 27.6649 117.965 27.973 117.692 28.4478L114.629 33.8122L119.252 38.9266ZM91.9612 39.7092C92.3167 39.7092 92.564 39.4569 92.564 39.094V21.0701H98.5519C98.9073 21.0701 99.1532 20.8189 99.1532 20.4556V17.9694C99.1532 17.6053 98.9073 17.3534 98.5519 17.3534H82.6086C82.2526 17.3534 82.007 17.6056 82.007 17.9694V20.4555C82.007 20.8185 82.2527 21.0701 82.6086 21.0701H88.5964V39.0938C88.5964 39.4569 88.8434 39.7092 89.1985 39.7092H91.9612Z" fill="#A158FF"/>
<path d="M11.03 50.5809C15.6677 54.2508 21.4887 56.4557 27.8043 56.4557C34.7156 56.4557 41.0162 53.8327 45.8248 49.5269C45.8831 49.4743 45.8544 49.4395 45.7969 49.4743C43.6391 50.9475 37.4892 54.1632 27.8045 54.1632C19.3881 54.1632 14.0693 52.2435 11.0657 50.5297C11.0082 50.5007 10.9869 50.5448 11.03 50.5809ZM29.6611 52.0098C36.3927 52.0098 43.7898 50.1339 48.214 46.4207C49.4246 45.409 50.5778 44.0624 51.6106 42.2528C52.2052 41.2116 52.7867 39.9745 53.2603 38.7586C53.2813 38.6993 53.2456 38.6704 53.2019 38.7371C49.0878 44.9262 37.1742 48.7865 24.8727 48.7865C16.1776 48.7865 6.82181 45.9441 3.15894 40.5168C3.12289 40.4666 3.08683 40.4881 3.10878 40.5457C6.521 47.9597 16.8729 52.0098 29.6611 52.0098ZM22.3062 39.7104C8.30587 39.7104 1.70441 33.0448 0.506914 28.496C0.492147 28.4301 0.449707 28.4446 0.449707 28.5037C0.449707 30.0351 0.599643 32.0113 0.857609 33.323C0.980671 33.9616 1.48902 34.9636 2.23431 35.7623C5.62444 39.3746 14.0765 44.4363 28.7141 44.4363C48.6573 44.4363 53.2172 37.6453 54.1484 35.412C54.8142 33.8148 55.1592 30.9285 55.1592 28.5039C55.1592 27.9172 55.1448 27.4485 55.1232 26.9884C55.1232 26.9137 55.0808 26.9076 55.0662 26.9804C54.0696 32.445 37.0305 39.7104 22.3062 39.7104ZM3.08683 16.5123C2.2846 18.1398 1.39536 20.8855 1.13101 22.3066C1.01513 22.9155 1.06449 23.2079 1.27336 23.6623C2.9514 27.3018 11.4392 33.125 31.238 33.125C43.3168 33.125 52.6998 30.0915 54.2199 24.5559C54.4999 23.5369 54.5149 22.461 54.1553 21.0112C53.7535 19.3912 53.001 17.502 52.3642 16.1754C52.3431 16.1322 52.306 16.1386 52.3136 16.1897C52.5502 23.4502 32.7435 28.1296 22.7499 28.1296C11.9251 28.1296 2.89419 23.7207 2.89419 18.1537C2.89419 17.6188 3.00248 17.0838 3.13765 16.527C3.15122 16.4761 3.10865 16.4677 3.08683 16.5123ZM45.8691 7.59789C45.9841 7.78203 46.0414 7.97856 46.0414 8.24308C46.0414 11.3488 36.7431 16.8429 21.9414 16.8429C11.0657 16.8429 9.02948 12.7186 9.02948 10.0957C9.02948 9.15809 9.38124 8.19874 10.1559 7.22443C10.1982 7.1665 10.1623 7.14419 10.1135 7.18731C8.69816 8.41329 7.40824 9.78299 6.26357 11.2753C5.71943 11.9785 5.38164 12.6013 5.38164 12.9745C5.38164 18.4101 18.7144 22.3511 31.181 22.3511C44.4642 22.3511 50.3925 17.9183 50.3925 14.0227C50.3925 12.6304 49.8623 11.8177 48.5061 10.242C47.6258 9.21697 46.7931 8.38234 45.9117 7.56076C45.8691 7.52486 45.8395 7.5541 45.8691 7.59789ZM41.7969 4.49287C37.6974 1.98094 32.9368 0.551849 27.8045 0.551849C22.6364 0.551849 17.7324 2.03085 13.6182 4.60928C12.3841 5.38571 11.6895 6.00791 11.6895 6.80773C11.6895 9.16543 17.0796 11.7005 26.6424 11.7005C36.106 11.7005 43.4461 8.92376 43.4461 6.25094C43.4461 5.61297 42.9006 5.16661 41.7969 4.49287Z" fill="#A158FF"/>
</svg>
