<svg width="131" height="39" viewBox="0 0 131 39" fill="none" xmlns="http://www.w3.org/2000/svg">
<path d="M19.1293 1.8663H111.144C120.534 1.8663 128.094 9.49337 128.094 18.9674V19.9446C128.094 29.4185 120.534 37.0456 111.144 37.0456H19.1293C9.73895 37.0456 2.1792 29.4185 2.1792 19.9446V18.9674C2.1792 9.49337 9.73895 1.8663 19.1293 1.8663Z" fill="black"/>
<path d="M70.9725 17.1262C71.5719 16.5689 72.5231 16.0942 74.3343 16.0942C76.1715 16.0942 77.1097 16.5689 77.7221 17.1262C78.3345 17.6836 78.7124 18.4679 78.7515 19.5826C78.7124 20.6972 78.3345 21.5022 77.7221 22.0595C77.1097 22.6168 76.1715 23.0916 74.3343 23.0916C72.5231 23.0916 71.5719 22.6168 70.9725 22.0595C70.3601 21.5022 69.9692 20.6972 69.9171 19.5826C69.9692 18.4679 70.3601 17.6836 70.9725 17.1262ZM65.4478 19.5826C65.4608 20.4701 65.6954 22.8439 67.3632 24.7429C68.7965 26.3735 71.0247 27.4675 74.3343 27.4675C77.657 27.4675 79.8721 26.3735 81.3184 24.7429C82.9732 22.8439 83.2208 20.4701 83.2338 19.5826C83.2208 18.6743 82.9732 16.3419 81.3184 14.4429C79.8721 12.7916 77.657 11.6976 74.3343 11.6976C71.0247 11.6976 68.7965 12.7916 67.3632 14.4429C65.6954 16.3419 65.4608 18.6743 65.4478 19.5826ZM33.6023 17.1262C34.2147 16.5689 35.1529 16.0942 36.9901 16.0942C38.8144 16.0942 39.7525 16.5689 40.3649 17.1262C40.9774 17.6836 41.3552 18.4679 41.4073 19.5826C41.3553 20.6972 40.9774 21.5022 40.3649 22.0595C39.7525 22.6168 38.8144 23.0916 36.9901 23.0916C35.1529 23.0916 34.2147 22.6168 33.6023 22.0595C33.0029 21.5022 32.6121 20.6972 32.573 19.5826C32.6121 18.4679 33.0029 17.6836 33.6023 17.1262ZM28.1036 19.5826C28.1036 20.4701 28.3512 22.8439 30.006 24.7429C31.4524 26.3735 33.6675 27.4675 36.9901 27.4675C40.3128 27.4675 42.5279 26.3735 43.9612 24.7429C45.616 22.8439 45.8636 20.4701 45.8767 19.5826C45.8635 18.6743 45.616 16.3419 43.9612 14.4429C42.5279 12.7916 40.3128 11.6976 36.9901 11.6976C33.6675 11.6976 31.4524 12.7916 30.006 14.4429C28.3512 16.3419 28.1036 18.6743 28.1036 19.5826ZM106.623 17.1262C107.235 16.5689 108.173 16.0942 109.998 16.0942C111.835 16.0942 112.773 16.5689 113.385 17.1262C113.998 17.6836 114.376 18.4679 114.428 19.5826C114.376 20.6972 113.998 21.5022 113.385 22.0595C112.773 22.6168 111.835 23.0916 109.998 23.0916C108.173 23.0916 107.235 22.6168 106.623 22.0595C106.01 21.5022 105.632 20.6972 105.58 19.5826C105.632 18.4679 106.01 17.6836 106.623 17.1262ZM101.111 19.5826C101.124 20.4701 101.372 22.8439 103.026 24.7429C104.46 26.3735 106.688 27.4675 109.998 27.4675C113.333 27.4675 115.548 26.3735 116.982 24.7429C118.65 22.8439 118.884 20.4701 118.884 19.5826C118.884 18.6743 118.65 16.3419 116.982 14.4429C115.548 12.7916 113.333 11.6976 109.998 11.6976C106.688 11.6976 104.46 12.7916 103.026 14.4429C101.372 16.3419 101.124 18.6743 101.111 19.5826ZM99.6126 27.4469V22.9884H93.1497C91.2864 22.9884 89.7749 21.4609 89.7749 19.5826C89.7749 17.7042 91.2864 16.1767 93.1497 16.1355L99.6126 16.1767V11.6769H93.1497C88.8237 11.6769 85.3056 15.2272 85.3056 19.5825C85.3056 23.9378 88.8237 27.4468 93.1497 27.4468L99.6126 27.4469ZM26.3316 27.4469V22.9884H19.8426C17.9923 22.9884 16.4808 21.4609 16.4808 19.5826C16.4808 17.7042 17.9923 16.1767 19.8426 16.1355L26.3316 16.1767V11.6769H19.8426C15.5166 11.6769 12.0115 15.2272 12.0115 19.5825C12.0115 23.9378 15.5166 27.4468 19.8426 27.4468L26.3316 27.4469ZM63.5715 19.5826C63.5715 15.2272 60.0534 11.6769 55.7274 11.6769C51.4144 11.6769 47.9093 15.2272 47.9093 19.5826V27.4469H52.3526L52.3657 19.5826C52.3657 17.7042 53.8641 16.1767 55.7275 16.1767C57.5907 16.1767 59.0892 17.7042 59.0892 19.5826V27.4469H63.5455L63.5715 19.5826ZM19.4256 4.76211C11.36 4.76211 4.83195 11.3673 4.83195 19.4794C4.83195 27.6327 11.36 34.2379 19.4256 34.2379H111.587C119.64 34.2379 126.194 27.6327 126.194 19.4794C126.194 11.3673 119.64 4.76211 111.587 4.76211H19.4256ZM111.587 0.262329C122.102 0.262329 130.65 8.86974 130.65 19.4794C130.65 30.1303 122.102 38.7377 111.587 38.7377H19.4256C8.89732 38.7377 0.349609 30.1303 0.349609 19.4794C0.349609 8.86973 8.89732 0.262329 19.4256 0.262329H111.587Z" fill="#A158FF"/>
</svg>
