<svg width="64" height="60" viewBox="0 0 64 60" fill="none" xmlns="http://www.w3.org/2000/svg">
<path d="M31.9999 0C14.3269 0 0 13.4314 0 30C0 46.5686 14.3269 60 31.9999 60C49.6731 60 64 46.5686 64 30C64 13.4315 49.6731 0 31.9999 0ZM2.35405 30C2.35405 26.7771 2.93195 23.6382 4.07496 20.6468L7.15302 22.6511V45.1718C6.19616 43.7973 5.37147 42.343 4.68279 40.8173C3.13814 37.3922 2.35405 33.7528 2.35405 30ZM52.9629 49.6528C50.2397 52.2056 47.0689 54.21 43.539 55.6098C39.8856 57.0587 36.0036 57.793 32 57.793C27.9971 57.793 24.115 57.0587 20.4617 55.6098C16.9312 54.21 13.761 52.2056 11.0373 49.6528C10.1785 48.847 9.37781 48 8.63716 47.1136H25.0205L31.4724 42.7346V18.9007L25.0205 14.3967H7.46003C8.50698 12.953 9.7021 11.5998 11.0373 10.3475C13.761 7.79398 16.9312 5.78969 20.4617 4.39025C24.115 2.94141 27.9971 2.20705 32 2.20705C36.0036 2.20705 39.8857 2.94141 43.539 4.39025C47.0689 5.78969 50.2397 7.79398 52.9629 10.3475C54.2987 11.5998 55.493 12.953 56.54 14.3967H51.8558L50.8035 16.5749L47.676 14.3967H40.3996L33.9944 18.9007V42.7346L40.3695 47.1136H55.3637C54.623 48 53.8222 48.847 52.9629 49.6528ZM13.6942 21.8854H19.5535C21.1929 21.8854 22.5214 23.1308 22.5214 24.6677V36.9845C22.5214 38.5209 21.1929 39.7668 19.5535 39.7668H16.0383V23.478L13.6942 21.8854ZM57.6289 43.9825V35.4899H49.3368V39.7668H45.7551C44.1883 39.7668 42.9185 38.5765 42.9185 37.1077V23.4811L40.573 21.8854H49.3368V26.5538H56.9377L58.4496 17.4308C58.7593 18.0031 59.049 18.5874 59.3171 19.1822C60.8625 22.6072 61.646 26.2466 61.646 30C61.646 33.7528 60.8625 37.3921 59.3171 40.8172C58.8241 41.9101 58.2608 42.9661 57.6289 43.9825Z" fill="#A158FF"/>
</svg>
