<svg width="137" height="37" viewBox="0 0 137 37" fill="none" xmlns="http://www.w3.org/2000/svg">
<path d="M18.8379 34.6151C16.777 34.9767 14.6799 35.0852 12.5105 35.374L5.89354 16.0069V36.2052C3.83265 36.4219 1.95252 36.7109 0 37V0H5.49606L13.0166 20.9935V0H18.8379V34.6151ZM30.2275 13.5498C32.4694 13.5498 35.9043 13.4414 37.9652 13.4414V19.2225C35.3979 19.2225 32.397 19.2225 30.2275 19.3309V27.9307C33.6264 27.714 37.0252 27.4246 40.4599 27.3162V32.8803L24.4422 34.1453V0H40.4599V5.78126H30.2275V13.5498ZM61.9735 5.78139H55.9715V32.3751C54.0189 32.3751 52.0664 32.3751 50.1866 32.4472V5.78139H44.1845V0H61.9738L61.9735 5.78139ZM71.3743 13.1525H79.2929V18.9336H71.3743V32.0499H65.6973V0H81.86V5.78126H71.3743V13.1525ZM91.2609 26.9912C94.5513 27.0633 97.8775 27.3166 101.096 27.497V33.206C95.9253 32.8806 90.7547 32.5559 85.4758 32.4472V0H91.2609V26.9912ZM105.977 33.6035C107.821 33.7121 109.773 33.8205 111.654 34.037V0H105.977V33.6035ZM137 0L129.66 17.5967L137 37C134.83 36.7109 132.661 36.3135 130.491 35.9521L126.334 25.257L122.104 35.0852C120.006 34.7235 117.981 34.6151 115.884 34.326L123.333 17.3797L116.607 0H122.826L126.623 9.71975L130.672 0H137Z" fill="#A158FF"/>
</svg>
