<svg width="162" height="60" viewBox="0 0 162 60" fill="none" xmlns="http://www.w3.org/2000/svg">
<path d="M92.0279 0.210129C80.5874 0.469331 67.7298 6.94939 61.7261 11.7187C61.7261 11.7187 69.6107 10.2153 80.6647 12.8074C80.6647 12.8074 80.8193 9.2563 83.5506 5.2905C85.5089 2.43927 92.0279 0.210129 92.0279 0.210129Z" fill="#A158FF"/>
<path d="M54.6401 12.1594C54.6401 12.1594 66.6733 3.91673 82.8806 0.495255C82.8806 0.495255 71.672 0.806298 60.1285 5.0313C44.8745 10.6301 41.1641 14.9069 41.1641 14.9069C50.9555 12.0038 54.6401 12.1594 54.6401 12.1594Z" fill="#A158FF"/>
<path d="M15.5262 25.6897L15.7066 24.8603C15.9385 23.7198 15.4232 22.7607 13.9029 22.7607C12.2023 22.7607 11.1716 23.979 10.9913 24.8344C10.1925 28.6706 23.4882 26.8043 21.9937 33.8805C21.1176 38.0278 16.9434 39.8681 9.98636 39.8681C3.44157 39.8681 0.0918778 38.4425 0.942184 34.4249L1.09679 33.7509H8.74955L8.56918 34.5804C8.20844 36.2393 9.16182 36.8354 10.6821 36.8354C12.3054 36.8354 13.4907 35.6431 13.6968 34.6063C14.4956 30.7701 1.68942 32.6623 3.15814 25.7934C3.98268 21.8795 7.71887 19.7281 14.3925 19.7281C21.2722 19.7281 23.8232 21.5425 22.9471 25.7157H15.5262V25.6897Z" fill="#A158FF"/>
<path d="M35.5988 29.189C35.7791 28.3595 35.2896 27.9189 34.0528 27.9189C32.7129 27.9189 31.9141 28.6705 31.5534 30.1221H25.3436C26.1681 26.1822 31.2957 25.4824 34.5423 25.4824C39.5411 25.4824 42.865 26.3118 42.1178 29.9147L40.7006 36.6281C40.443 37.8982 40.3141 38.8831 40.7522 39.6089H33.8466C33.7178 39.1164 33.7436 38.6239 33.7436 38.0537H33.6663C32.6098 39.2719 30.5485 39.9718 28.4098 39.9718C24.1068 39.9718 22.7926 38.287 23.308 35.9282C23.8491 33.388 25.4982 32.1957 30.2135 31.4959L33.1252 31.0552C34.4908 30.8479 34.9288 30.8219 35.2896 30.7701L35.5988 29.189ZM32.1718 33.5954C31.0638 33.8805 30.5227 34.4508 30.3166 35.3839C30.1104 36.2911 30.6 37.2502 31.6822 37.2502C33.2798 37.2502 34.0785 36.4985 34.3877 34.9951L34.7742 33.1548C34.7742 33.1548 33.2798 33.3103 32.1718 33.5954Z" fill="#A158FF"/>
<path d="M45.8794 28.9038H43.4058L44.0499 25.8193H46.5236L46.9874 23.6939C47.58 20.9463 49.461 19.9354 54.434 19.9354C55.4647 19.9354 56.7272 19.9873 57.8094 20.091L57.2683 22.6052C56.9334 22.5534 56.5984 22.5275 56.0831 22.5275C55.207 22.5275 54.3051 22.8126 54.1763 23.4865L53.6867 25.8453H56.5984L55.9542 28.9298H53.0426L50.7751 39.6089H43.6377L45.8794 28.9038Z" fill="#A158FF"/>
<path d="M62.4475 33.4917L61.9837 35.669C61.6745 37.1465 62.5506 37.5353 63.5298 37.5353C64.7923 37.5353 65.7457 36.654 66.1322 34.7877H72.5739C71.8009 38.1314 68.9666 39.9718 63.0402 39.9718C56.1347 39.9718 54.3052 37.9759 55.4132 32.74C56.5212 27.4782 59.639 25.4824 66.0807 25.4824C71.8009 25.4824 74.3776 27.1153 73.3212 32.092L73.0377 33.4917H62.4475ZM67.1114 30.0184C67.4206 28.5669 67.0856 27.9189 65.5653 27.9189C64.0966 27.9189 63.4782 28.5928 63.169 30.0184L62.9629 31.0034H66.9052L67.1114 30.0184Z" fill="#A158FF"/>
<path d="M78.6035 19.3134H85.7667L81.4894 39.6089H74.3262L78.6035 19.3134Z" fill="#A158FF"/>
<path d="M87.4932 25.8453H94.6564L91.7447 39.6089H84.5815L87.4932 25.8453ZM88.8588 19.3134H96.022L95.146 23.4606H87.9828L88.8588 19.3134Z" fill="#A158FF"/>
<path d="M96.2537 25.8452H98.65L99.0107 24.0827L107.359 18.3284L105.813 25.8452H108.648L108.003 28.9297H105.169L103.7 35.8505C103.52 36.6281 104.035 36.9132 105.195 36.9132H106.303L105.736 39.6089C104.396 39.7126 103.005 39.7644 101.819 39.7644C97.4389 39.7644 95.8414 39.2978 96.4856 36.2652L98.0316 28.9297H95.6353L96.2537 25.8452Z" fill="#A158FF"/>
<path d="M115.038 33.4917L114.574 35.669C114.265 37.1465 115.141 37.5353 116.12 37.5353C117.383 37.5353 118.336 36.654 118.723 34.7877H125.164C124.391 38.1314 121.557 39.9718 115.631 39.9718C108.699 39.9718 106.896 37.9759 108.004 32.74C109.112 27.4782 112.229 25.4824 118.671 25.4824C124.391 25.4824 126.968 27.1153 125.912 32.092L125.628 33.4917H115.038ZM119.702 30.0184C120.011 28.5669 119.676 27.9189 118.156 27.9189C116.687 27.9189 116.069 28.5928 115.759 30.0184L115.553 31.0034H119.496L119.702 30.0184Z" fill="#A158FF"/>
<path d="M126.169 39.1942C126.169 38.2092 126.968 37.4057 127.947 37.4057C128.926 37.4057 129.725 38.2092 129.725 39.1942C129.725 40.1791 128.926 40.9827 127.947 40.9827C126.942 40.9827 126.169 40.1791 126.169 39.1942ZM129.39 39.1942C129.39 38.3906 128.746 37.7426 127.947 37.7426C127.148 37.7426 126.478 38.3906 126.478 39.1942C126.478 39.9977 127.122 40.6716 127.947 40.6716C128.746 40.6716 129.39 40.0236 129.39 39.1942ZM127.56 39.3238V40.231H127.225V38.1314H127.895C128.282 38.1314 128.668 38.2351 128.668 38.7017C128.668 38.935 128.514 39.1423 128.256 39.1942C128.539 39.246 128.565 39.3756 128.617 39.6089C128.643 39.8163 128.668 40.0236 128.746 40.2051H128.333C128.308 40.0755 128.282 39.9459 128.256 39.8422C128.23 39.6607 128.23 39.5052 128.127 39.4015C128.05 39.3238 127.947 39.3238 127.818 39.3238H127.56ZM127.895 38.9868C128.205 38.9868 128.282 38.8572 128.282 38.6758C128.282 38.5202 128.205 38.4425 127.947 38.4425H127.56V38.9868H127.895Z" fill="#A158FF"/>
<path d="M71.9043 58.9972L80.562 45.2336H82.5975L85.2258 58.9972H83.1644L82.4429 55.4202H76.1043L73.8626 58.9972H71.9043ZM77.0834 53.7873H82.1853L81.1031 47.1258L77.0834 53.7873Z" fill="#A158FF"/>
<path d="M94.7594 49.4327H96.5631L94.5532 58.9972H92.8011L93.1103 57.5975H93.0588C92.0796 58.7899 90.7655 59.2824 89.4514 59.2824C87.4674 59.2824 86.6428 57.7531 87.0551 55.835L88.4207 49.4327H90.2244L89.0391 55.0833C88.6784 56.7422 88.8072 57.9604 90.5336 57.9604C91.2809 57.9604 92.3631 57.5716 92.9557 56.5867C93.4968 55.6795 93.7287 54.5649 93.7802 54.3316L94.7594 49.4327Z" fill="#A158FF"/>
<path d="M99.8357 49.4327L100.274 47.385L102.206 46.8147L101.665 49.4327L103.881 49.3808L103.598 50.7287L101.407 50.7028L100.093 56.8718C99.9388 57.5457 100.403 57.8827 101.047 57.8827C101.33 57.8827 101.717 57.8568 102.026 57.779L101.742 59.1787C101.33 59.2046 100.892 59.2824 100.48 59.2824C100.042 59.2824 99.7069 59.2564 99.2946 59.1787C99.0111 59.1268 98.5731 58.9713 98.367 58.5566C98.1351 58.09 98.0578 58.0641 98.3154 56.794L99.6038 50.7287L97.9805 50.7546L98.2639 49.4068L99.8357 49.4327Z" fill="#A158FF"/>
<path d="M113.466 54.2279C112.848 57.2087 110.787 59.3083 107.669 59.3083C104.551 59.3083 103.366 57.2087 104.01 54.2279C104.628 51.2471 106.69 49.1475 109.807 49.1475C112.925 49.1475 114.111 51.2471 113.466 54.2279ZM107.952 57.9864C110.091 57.9864 111.147 56.2756 111.585 54.2279C112.023 52.1802 111.688 50.4695 109.55 50.4695C107.411 50.4695 106.355 52.1802 105.917 54.2279C105.453 56.2497 105.814 57.9864 107.952 57.9864Z" fill="#A158FF"/>
<path d="M126.143 48.681C126.143 47.048 124.829 46.6074 123.361 46.6074C120.011 46.6074 118.181 49.5623 117.692 52.1284C117.099 55.6535 117.743 57.5716 121.66 57.6494C122.588 57.6494 123.541 57.4939 124.469 57.2087L125.293 53.3207H122.175L122.51 51.6877H127.509L126.066 58.4788C124.391 58.9454 122.742 59.2824 121.196 59.2824C119.264 59.2824 117.743 59.0232 116.532 57.7012C115.296 56.3793 115.244 54.0724 115.656 52.1284C115.966 50.7028 116.764 49.1476 117.718 47.9034C119.367 45.8038 121.531 44.9744 123.876 44.9744C126.195 44.9744 128.514 46.0371 128.076 48.681H126.143Z" fill="#A158FF"/>
<path d="M128.694 58.9972L131.606 45.2336H133.41L130.498 58.9972H128.694Z" fill="#A158FF"/>
<path d="M139.98 53.0874C140.341 51.4285 140.444 50.4695 138.537 50.4695C137.635 50.4695 136.656 51.0138 136.424 51.9988H134.518C135.059 49.8992 136.837 49.1735 138.718 49.1735C140.676 49.1735 142.48 49.7696 141.913 52.4394L140.934 57.0014C140.856 57.4161 140.702 58.2196 140.573 59.0232H139.362C139.181 59.0232 138.846 59.1268 138.872 58.8936C138.924 58.4529 138.975 58.0382 139.053 57.5975H139.027C138.177 58.7899 137.017 59.3083 135.703 59.3083C134.054 59.3083 132.559 58.4529 132.972 56.5867C133.538 53.8909 136.064 53.1133 138.331 53.1133H139.98V53.0874ZM137.919 54.3575C136.811 54.4094 135.265 54.8241 134.981 56.1978C134.724 57.3902 135.419 57.9604 136.476 57.9604C138.589 57.9604 139.388 56.1201 139.723 54.3316H137.919V54.3575Z" fill="#A158FF"/>
<path d="M148.638 49.1475C150.441 49.1475 152.297 49.8992 151.704 52.0765H149.797C150.132 50.8583 149.282 50.4436 148.251 50.4436C147.272 50.4436 146.422 50.9101 146.19 51.9729C145.958 53.0356 147.581 53.1133 148.226 53.3207C149.72 53.8391 151.549 54.0465 151.086 56.1979C150.596 58.5307 148.174 59.2564 146.216 59.2564C144.232 59.2564 142.763 58.3492 143.227 56.1201H145.133C144.927 57.2865 145.597 57.9345 146.68 57.9345C147.736 57.9345 148.921 57.5198 149.179 56.2756C149.643 54.1502 143.51 55.7313 144.309 51.9988C144.721 50.0548 146.911 49.1475 148.638 49.1475Z" fill="#A158FF"/>
<path d="M158.3 49.1475C160.104 49.1475 161.959 49.8992 161.367 52.0765H159.486C159.821 50.8583 158.97 50.4436 157.94 50.4436C156.986 50.4436 156.11 50.9101 155.878 51.9729C155.647 53.0356 157.27 53.1133 157.914 53.3207C159.408 53.8391 161.238 54.0465 160.774 56.1979C160.285 58.5307 157.862 59.2564 155.904 59.2564C153.92 59.2564 152.451 58.3492 152.915 56.1201H154.822C154.616 57.2865 155.286 57.9345 156.368 57.9345C157.424 57.9345 158.61 57.5198 158.867 56.2756C159.331 54.1502 153.199 55.7313 153.997 51.9988C154.384 50.0548 156.574 49.1475 158.3 49.1475Z" fill="#A158FF"/>
</svg>
